<svg xmlns="http://www.w3.org/2000/svg" width="210mm" height="297mm" viewBox="0 0 210 297"><path d="M82.65 113.833l-51.053 88.418-11.92-20.206 13.76-23.68-27.326-.072-5.824-10.096 5.947-10.327 38.895.123 13.979-24.099zM145.992 145.77L94.947 57.348l23.458-.22 13.628 23.756 13.725-23.63 11.656.005 5.97 10.314-19.554 33.623 13.88 24.155z" style="isolation:auto;mix-blend-mode:normal" color="#000" overflow="visible" fill="#7ebae4" fill-rule="evenodd"/><path style="isolation:auto;mix-blend-mode:normal" d="M123.516 111.29l-102.1-.006 11.54-20.425 27.387.076-13.601-23.701 5.832-10.092 11.916-.013 19.342 33.746 27.86.057z" color="#000" overflow="visible" fill="#5277c3" fill-rule="evenodd"/><path fill="#d9d9d9" d="M90.01 81.245h36.88v40.692H90.01z"/><path d="M129.483 259.254s-2.167-.962-3.32.734c-.342.523-.894.95-1.226.95-.332 0-2.083-1.172-3.89-2.605-4.136-3.282-6.02-4.487-7.479-4.787-.633-.13-1.778-.883-2.545-1.673-1.493-1.539-4.957-3.486-6.197-3.483-.415.001-1.867.573-3.227 1.27-2.808 1.441-5.834 1.995-7.467 1.366-.6-.23-1.768-.537-2.597-.68-1.444-.251-1.54-.36-2.317-2.615-.987-2.865-1.582-3.643-2.586-3.38-.462.12-1.375-.217-2.333-.864-3.103-22.038-1.003-67.405.105-101.08.103-3.301.048-3.588-1.025-5.324-.624-1.009-1.486-2.05-1.914-2.312-.778-.477-.78-.533-.543-28.713.14-16.812.382-28.418.596-28.688.198-.249.733-.505 1.189-.57.743-.106.84-.38.94-2.674.11-2.501.129-2.177.15-4.042.247-3.045-.038-1.332.247-3.045.243-1.47.452-4.266.465-6.213.025-3.744.698-8.197 1.266-8.377.926-.292 1.754 3.274 1.746 7.526-.005 2.519.21 4.473.645 5.868l.653 2.092 2.777-2.638 2.777-2.637V60.6c0-1.833.142-2.2 1.29-3.347l1.288-1.29.048-9.126c.026-5.02.195-9.513.375-9.987 1.105-2.914 1.527-5.2 1.738-9.415.13-2.613.334-5.137.453-5.61.241-.961 1.184-1.152 1.51-.305.172.45.364.467 1.033.095 1.158-.644 1.428-1.098 1.21-2.028-.11-.472.119-1.201.548-1.747.904-1.149 2.196-7.278 2.513-11.915.292-4.27.752-5.874 1.687-5.874.74 0 .728-.055 1.344 6.458.33 3.496 1.982 10.222 2.858 11.64.47.76.756 1.944.784 3.244.042 1.957.056 1.984.321.616.324-1.67.55-1.97 1.272-1.693.622.238 1.025 3.442 1.025 8.138 0 2.592.143 3.386.76 4.223.683.929.783 1.868 1.01 9.508.14 4.662.39 8.561.558 8.664.167.104.202 1.273.078 2.598-.22 2.353-.197 2.431.93 3.265.862.637 1.217 1.698 1.4 2.918.91 2.071 13.723 63.35 10.026 76.524-.532 1.898-.384 4.26-.538 4.687-.373 29.022.09 94.1-.411 118.413zm-.613-79.321c6.548 47.892 3.274 23.946 0 0zm-45.013-1.12c36.556 48.64 18.278 24.32 0 0zM130.25 77.088c.153.146 1.846.357 1.877.884.361 6.067.085 20.595.085 28.122.013 11.084 1.108 19.457-.377 27.793-8.992 13.627-16.403-72.85-9.07-68.305 1.86 2.203 1.699 1.93 2.11 2.197.468.303.037-1.092.057-1.604.089-2.284.969-7.18 1.106-8.441.18-1.641 1.254-3.306 1.254-3.306 1.389 1.192 1.518 8.375 1.76 9.1.332.99.949 7.173 1.198 13.56zm-27.701 32.871c.13-.209.09-.38-.086-.38s-.621-.509-.988-1.13c-.614-1.04-.62-1.223-.073-2.282.328-.633.868-1.152 1.2-1.152.609 0 .598.428-.06 2.543-.226.726-.082.865 1.138 1.094 1.561.292 1.978.032 2.164-1.35.175-1.302 1.459-1.539 1.459-.27 0 1.237.71 1.765 2.03 1.512 1.124-.216 1.147-.354.428-2.673-.41-1.322.822-1.093 1.535.285.702 1.357 1.175 1.42 2.352.314 1.186-1.114 1.108-1.725-.26-2.025-.804-.177-1.141-.475-1.141-1.011 0-.661.161-.725 1.236-.486.68.151 1.481.293 1.781.316.697.051 1.24-2.285.641-2.754-.698-.546-3.278-.826-3.278-.355 0 .732-1.904 2.94-3.043 3.53-1.112.575-3.99.766-5.103.339-1.178-.452-.573-.91 1.205-.91 3.79-.002 6.143-2.474 5.627-5.912-.309-2.061-1.614-3.695-3.578-4.481-1.582-.633-2.056-1.552-1.704-3.308.114-.572.036-1.144-.173-1.274-.21-.129-2.75-.278-5.648-.331l-5.267-.096-.105 5.588-.105 5.588 1.816.116c1.31.084 1.817.276 1.817.687 0 .443-.404.545-1.807.456l-1.806-.114V110.34h3.78c2.11 0 3.885-.168 4.016-.38zm-5.066-4.97c.16-1.04 2.038-2.203 2.618-1.623.305.306.128.69-.654 1.415-1.3 1.205-2.131 1.292-1.964.207zm6.777-5.678c-.418-.418-.762-1.231-.763-1.807-.001-.575-.342-1.559-.758-2.186-.416-.628-.757-1.459-.758-1.847-.002-.388-.43-1.214-.953-1.836-1.345-1.597-1.266-2.592.203-2.592 1.006 0 1.249.22 1.888 1.711.43 1.004.984 1.711 1.339 1.711.367 0 .968.821 1.53 2.092.508 1.15 1.095 2.092 1.303 2.092.207 0 .487.434.62.966.512 2.04-2.095 3.251-3.65 1.696zm-6.75-4.648c-.867-.418-1.19-1.437-.457-1.437.677 0 2.644 1.139 2.644 1.531 0 .479-1.097.432-2.187-.094zm18.635 15.3l1.806-.004v-3.469c0-3.04-.07-3.41-.57-2.996-.314.26-.57.713-.57 1.006 0 .884-2.922 3.768-4.57 4.511-1.807.815-1.368 1.477.766 1.157.732-.11 2.144-.202 3.138-.204zm-.825-11.413c.973 0 1.11-.137 1.11-1.11 0-2.01-.304-2.334-1.942-2.072-1.218.195-1.48.126-1.48-.39 0-.345.427-.822.95-1.06 1.233-.562 1.2-1.072-.156-2.37l-1.107-1.061-.471.894c-.26.492-.654 1.013-.877 1.158-.269.174-.127.76.421 1.734.455.81.943 2.198 1.085 3.085.19 1.191.402 1.559.808 1.403.302-.116 1.049-.21 1.66-.21zm2.14-10.162c-.37-.37-1.3-.49-3.154-.41l-2.63.114 1.738 1.207c1.193.828 2.148 1.963 3.043 3.613l1.304 2.406.111-3.203c.082-2.335-.03-3.344-.412-3.727zm-6.974 3.222c.374-1.397.273-2.187-.28-2.187-.285 0-.97-.355-1.521-.788l-1.002-.788v1.897c0 1.724.096 1.932 1.046 2.28 1.48.54 1.502.535 1.757-.414z" fill="#9d9d9d"/><path d="M129.483 259.254c-1.805-1.226-2.6-1.232-3.39-.027-.342.523-.883.951-1.202.951-.319 0-1.711-.911-3.094-2.025-3.869-3.117-6.432-4.77-8.083-5.215-.828-.223-1.609-.674-1.735-1.002-.29-.756-4.3-3.365-6.07-3.949-1.45-.478-2.982-.01-5.831 1.781-1.398.879-3.844.987-7.505.332-1.93-.346-2.054-.484-3.146-3.512-.973-2.695-1.542-3.325-2.725-3.016-.818.214-2.977-.765-2.977-1.35 1.658-13.045 5.95 1.93 0 0-.137-27.21 1.374-66.164 1.515-99.592.005-3.298-.098-3.836-1.077-5.628-.596-1.09-1.449-2.237-1.895-2.55-.746-.522-.807-.887-.762-4.556.026-2.194.194-4.079.373-4.19.178-.11.327.794.33 2.01.005 2.026.045 2.13.485 1.261.264-.52.783-1.006 1.154-1.077 1.281-.247 1.778.65 1.778 3.212 0 2.512-.052 2.582-1.806 2.44-.47-.038-.855.072-.853.243.004.484 1.296 2.331 2.258 3.228.712.663.83 1.078.663 2.326-.112.835-.066 1.88.101 2.322.287.756.506.792 3.68.613l3.373-.19.204-1.521c.273-2.043.597-2.472 1.87-2.472 1.347 0 1.436.288 1.178 3.803-.207 2.82-.222 2.854-1.332 2.98-.69.079-1.285-.096-1.547-.454-.31-.425-1.364-.625-3.917-.744l-3.491-.162-.005 3.659c-.002 2.012-.045 12.087-.095 22.388-.085 17.57-.05 18.73.57 18.73.564 0 .656-.364.624-2.478-.037-2.522.403-3.607 1.465-3.607.395 0 .477.2.272.666-.36.82-.986 8.47-.747 9.127.276.755 2.093.593 2.132-.19.019-.366.1-2.516.182-4.776.081-2.261.256-4.286.388-4.5.132-.214.66-.283 1.172-.155.892.224.927.165.815-1.395l-.118-1.63-1.711-.106c-.942-.06-1.964-.197-2.272-.306-1.034-.367.434-.912 1.891-.703.732.106 1.569.033 1.859-.161.642-.43 1.053-4.038.5-4.38-.216-.134-1.434-.352-2.707-.485-1.272-.133-2.314-.38-2.314-.549 0-.169.984-.358 2.187-.42l2.187-.115.19-12.344.19-12.345 1.331-.293c.732-.161 4.326-.188 7.986-.06 3.66.129 9.052.254 11.98.278l5.324.045.076 1.14c.042.628.106 6.104.141 12.17.04 6.696.215 11.216.446 11.504.233.291 1.323.476 2.806.476 2.3 0 2.426-.047 2.426-.904 0-.496.107-1.438.238-2.091.204-1.024.129-1.189-.548-1.189-.433 0-.881-.153-.997-.34-.116-.188-.32-4.124-.456-8.747-.175-6.027-.126-8.407.175-8.407.954 0 1.208 1.713 1.208 8.152 0 3.674.137 6.68.306 6.68.168 0 .344-4.893.39-10.874.068-8.684-.013-10.841-.4-10.713-.315.104-.527 1.065-.6 2.722-.105 2.394-.167 2.553-.95 2.441-.697-.099-.844-.375-.874-1.64-.078-3.363-.124-3.523-1.07-3.76a16.459 16.459 0 0 1-1.52-.463c-.432-.165-.607-.01-.607.538 0 1.393-.437 1.973-1.486 1.973-1.61 0-1.937-.64-1.93-3.784.006-3.113.168-3.598 1.325-3.952 1.23-.376 1.803.303 2.001 2.372l.187 1.942h3.913c2.775 0 3.97-.139 4.105-.476.106-.261.205-.108.222.34.016.448-.227.913-.54 1.034-.669.256-.793 2.723-.157 3.115.297.184.297.372 0 .67-.489.487-.395 7.66-.24 9.973-.222 8.252.436 12.704.368 24.98.37 5.46 1.314 4.995.933 30.697.003 11.31.109 20.733.236 20.94.128.205.075.654-.117.996-.74 1.323-1.006-.535-1.015-7.081l-.008-6.656h-7.226l-.204 1.522c-.396 2.954-.748-2.932-.946-15.783-.326-21.255-.56-24.849-1.55-23.858-.132.132-.057.767.168 1.41.252.724.324 2.8.19 5.44-.12 2.347-.255 8.632-.301 13.966-.046 5.333-.112 9.907-.147 10.163-.075.561-2.385.208-2.814-.43-.154-.229-.282-1.74-.285-3.359-.006-2.824-.04-2.94-.862-2.852-.977.103-.857 1.6-1.14-14.27-.174-9.692-.104-10.09 1.706-9.677 1.043.238 2.523-.242 1.91-.62-.673-.417-18.284-.672-18.533-.269-.122.196-.256 4.385-.298 9.308-.07 7.996-.009 9.02.571 9.6.357.357.7.574.764.481.063-.092 0-4.189-.139-9.104-.139-4.916-.176-9.066-.083-9.223.276-.462 4.238-.327 4.536.156.15.242.305 4.22.344 8.842.044 5.092.267 9.346.565 10.8.373 1.817.39 2.739.07 3.803-.233.772-.476 2.628-.54 4.124l-.116 2.72 1.287.394c.94.289 1.493.273 2.044-.057.64-.384.843-.323 1.335.403.444.654.95.857 2.15.86 2.492.004 5.564.452 5.564.81 0 .18-1.693.327-3.762.327-3.08 0-3.805.109-3.994.601-.4 1.045-.257 1.59.727 2.76.865 1.028 1.245 1.163 3.899 1.387 1.617.137 3.192.332 3.5.433 1.174.386-.499.853-2.294.64-1.811-.215-2.996.425-1.618.874 2.802.91 5.063 3.343 5.063 5.448 0 .746.272 1.17.95 1.479.559.254.952.75.952 1.202 0 .422.184.768.41.768.248 0 .324-.415.191-1.046-.236-1.122.293-2.514.59-1.553.087.28.153 1.534.148 2.79-.008 2.243-.025 2.28-1.018 2.164-1.273-.148-1.722.531-.929 1.407.334.37.608.931.608 1.249 0 1.61 4.344 7.139 5.621 7.153.97.011.934-1.154-.062-2.078-.548-.507-.996-1.253-.996-1.657 0-.404-.415-1.007-.922-1.34-1.146-.75-1.53-1.876-.987-2.891.549-1.026 2.372-1.018 3.77.015.938.694 1.258.74 2.606.377 1.548-.417 1.288-.643 1.288 0 .05 6.532.214 5.646.452 22.248zm-2.48-41.765l-.114-2.377-2.973-.316c-1.636-.173-3.219-.222-3.518-.107-.649.25-.753 3.316-.15 4.441.341.64.819.736 3.63.736h3.238zm-26.545-4.278a.572.572 0 0 0-.57-.57c-.594 0-.755.449-.317.887.437.437.887.276.887-.317zm26.7-6.94c.062-3.923.058-8.868-.008-10.99l-.12-3.858-1.401-.338c-.771-.186-2.386-.274-3.589-.195l-2.186.143v10.728c0 7.836.123 10.85.456 11.183.281.282 1.661.457 3.597.457h3.14l.112-7.13zm-4.008 3.073c-.14-.14-.254-3.273-.254-6.963 0-7.24.116-7.71 2.005-8.15 1.276-.296 1.615.316 1.25 2.26-.257 1.37-.973 1.483-.973.154 0-.406-.257-.738-.57-.738-.487 0-.571 1.014-.571 6.845 0 6.252-.146 7.334-.887 6.592zm2.266-2.331c-.104-.167-.03-.552.161-.856.273-.431.351-.365.356.303.006.88-.188 1.086-.517.553zm.202-7.683c0-.523.087-.737.192-.476.106.262.106.69 0 .95-.105.262-.192.048-.192-.474zm-30.175 12.573c.095-.285-.048-.428-.333-.332a1.19 1.19 0 0 0-.665.665c-.095.285.047.428.332.333a1.19 1.19 0 0 0 .666-.666zm-9.611-6.133c.137-.223.775-.351 1.416-.285 1.403.144 1.688-.425.768-1.531l-.678-.815-1.236.795c-.683.439-1.236 1.118-1.236 1.518 0 .784.563.97.966.318zm28.311-1.972c-.003-1.098-.173-2.253-.378-2.567-.26-.4-.358.2-.326 1.997.026 1.412.197 2.567.379 2.567s.328-.899.325-1.997zm.006-4.659c0-.523-.171-.95-.38-.95-.21 0-.38.427-.38.95 0 .523.17.951.38.951.209 0 .38-.428.38-.95zm-.5-3.684c-.122-.303-.212-.213-.23.23-.017.4.073.626.2.5.126-.127.14-.455.03-.73zm-20.88-6.614c-.139-6.875-.829-6.935-.974-.085-.111 5.211.036 6.422.7 5.758.227-.226.337-2.514.273-5.673zm20.883.703c-.096-.37-.182-.16-.19.468-.007.628.072.93.176.673.104-.258.11-.771.014-1.141zm9.386-.181c.027-.061-.037-2.158-.142-4.66-.185-4.432-.213-4.552-1.113-4.763-1.835-.431-1.296-1.103.98-1.222l2.2-.115.337-1.433c.185-.788.229-1.865.096-2.394-.233-.93-.328-.956-2.987-.848l-2.746.111.05 7.309c.027 4.02.159 7.593.292 7.94.188.49.55.581 1.614.409.754-.123 1.393-.273 1.42-.334zm3.971-.777c.089-.468-.119-.666-.697-.666-.8 0-1.145.755-1.019-3.126.117-3.6.39-4.86-.21-4.86-.593 0-.666.452-.666 4.152 0 2.284-.108 4.435-.24 4.78-.203.528-.007.608 1.232.507 1.042-.086 1.51-.317 1.6-.787zm-27.311-1.616c0-.314-.068-.57-.15-.57-.082 0-.248.256-.368.57-.12.313-.053.57.15.57.202 0 .368-.257.368-.57zm18.556-8.236l.112-2.532-3.155-.23c-1.734-.125-5.892-.304-9.238-.396l-6.75-.187c-1.38-.039-.598-.74.95-.852l1.616-.117.116-1.807c.128-1.994.02-2.062-1.97-1.23-.929.387-1.378.822-1.378 1.33 0 .75-.547 1.029-.9.458-.101-.163-.225-4.057-.275-8.652-.104-9.616-.324-13.547-.742-13.289-.161.1-.308 1.765-.325 3.7-.017 1.934-.103 8.534-.191 14.666-.16 11.143-.16 11.149.66 11.46.452.17 5.443.288 11.09.26l10.268-.05zm-33.364-2.291c35.868 50.219 17.934 25.11 0 0zm33.368-3.45c.106-1.65.028-1.842-.88-2.188-1.362-.517-1.327-.542-1.327.953 0 .93-.172 1.33-.57 1.33-.47 0-.578-.724-.61-4.088-.028-2.866-.128-3.711-.338-2.827-.164.693-.66 1.646-1.102 2.116-.442.47-.803 1.16-.803 1.532 0 .372-.338.765-.751.873-.49.128-.836.647-.993 1.486-.256 1.36-.87 1.75-.987.623-.038-.366-.08-5.626-.095-11.688-.024-10.108-.08-11.034-.68-11.15-.607-.117-.65.643-.603 10.53.055 11.663-.019 12.091-2.01 11.693-.813-.162-1.07-.042-1.232.578-.113.43-.43.708-.705.615-.393-.131-.504-1.958-.513-8.501-.017-11.245-.118-13.931-.513-13.687-.334.207-.613 22.807-.288 23.332.094.151 3.48.275 7.527.275h7.357zm-3.466-12.74c-.096-.366-.174-.066-.174.666s.078 1.032.174.665a3.123 3.123 0 0 0 0-1.33zm.182-8.621c-.402-.743-.736 1.247-.51 3.036l.238 1.877.23-2.281c.128-1.255.146-2.44.042-2.632zm8.674 79.168c-.133-7.15-.09-8.325.316-8.732.35-.35.453.64.453 4.377 0 2.967-.146 4.83-.38 4.83-.21 0-.384-.214-.39-.475zm-4.086-3.328c0-.732.078-1.032.173-.666.096.366.096.965 0 1.332-.095.366-.173.066-.173-.666zm-12.092-13.805c-.195-.509-.408-3.514-.497-6.99-.044-1.736-.152-1.985-.905-2.092l-.856-.121-.04-8.774c-.022-4.825-.156-9.394-.299-10.152-.213-1.14-.129-1.449.49-1.78 1.032-.552 3.665-.505 4.136.074.246.302.406 5.846.438 15.167.046 13.19-.011 14.716-.561 14.927-.975.374-1.7.275-1.906-.26zm-.547-10.99c0-.615-.112-.725-.423-.414-.233.233-.308.61-.168.836.394.637.591.495.591-.423zM89.805 168.81c-.002-.68-.102-5.122-.222-9.872-.12-4.75-.103-8.823.038-9.05.184-.298.4-.295.77.01.404.337.518 2.502.54 10.287.023 8.55-.05 9.861-.547 9.861-.393 0-.576-.39-.579-1.236zm8.936-23.88c-.322-1.015-.118-5.35.29-6.186.242-.494.678-.655 1.548-.57l1.21.117v7.19l-1.408.09c-1.102.07-1.458-.068-1.64-.642zm6.534.3c-.515-.377-.723-1.125-.816-2.938-.173-3.37.221-4.272 1.799-4.12l1.236.119v3.613c0 3.327-.06 3.621-.764 3.722-.42.06-1.074-.118-1.455-.396zm5.908.02c-.283-.282-.457-1.672-.457-3.648 0-2.872.077-3.212.761-3.391 1.748-.457.54-.872-2.567-.882-8.289-.027-19.714-.476-20.042-.787-.227-.216-.206-.498.057-.761.304-.304.216-.62-.324-1.16-.634-.635-.717-1.131-.57-3.42l.171-2.677 4.126-.098c2.27-.053 10.606-.123 18.525-.155l14.397-.058-.262-1.045c-.348-1.386-.484-1.48-1.353-.937-2.387 1.49-4.172-.431-4.164-4.483.005-2.826.303-3.504 1.567-3.568.682-.034.926-.296 1.018-1.091.07-.616.351-1.046.683-1.046.45 0 .54-.48.45-2.377l-.113-2.377-2.947.13c-1.621.072-2.946-.014-2.944-.19.003-.176.68-.603 1.504-.95.253-.723 0 0 .096-1.547.05-1.92-.082-3.007-.082-11.042 0-7.075-.11-9.034-.54-9.621-.487-.666-1.076-.745-5.99-.801-7.224-.084-7.161-.08-7.161-.448 0-.177 3.423-.305 7.606-.286 7.623.036 9.847-.264 5.039-.68-4.107-.354-22.336-.73-23.136-.476-.701.223-.724.695-.613 12.656.091 9.89.014 12.49-.38 12.74-.614.389-3.004.412-3.595.034-.702-.449-1.004-26.004-.319-26.982.496-.708.927-.734 9.335-.578 6.556.122 8.747.052 8.547-.271-.148-.24-1.067-.414-2.042-.389-.975.026-5.145.028-9.266.005-5.763-.033-7.738-.17-8.557-.598-.585-.305-1.351-.556-1.702-.557-.724-.003-2.214-1.724-2.214-2.558 0-.303-.214-.48-.476-.394-.29.096-.52 1.034-.59 2.409-.184 3.558-.836 3.446-.836-.144 0-2.827.069-3.119.734-3.119 1.626 0 1.893-.861 1.863-6.032-.016-2.928.143-5.192.4-5.67.237-.444.426-2.562.426-4.768 0-4.172.268-6.348.783-6.348.583 0 .836 1.682.787 5.22-.033 2.396.136 3.995.522 4.916.313.751.57 1.934.57 2.628 0 1.552.64 2.028 1.355 1.009.293-.42 1.734-1.946 3.202-3.394l2.669-2.632v-2.146c0-1.98.098-2.224 1.282-3.169l1.282-1.023.056-9.348c.053-8.846.245-10.768 1.276-12.762.209-.404.455-2.2.546-3.993.091-1.792.247-3.65.345-4.13.262-1.272.917-.633.917.894 0 .72.172 1.309.38 1.309.398 0 .446-.31.524-3.404.059-2.332.798-3.317 1.18-1.574.432 1.965.959.917.959-1.905 0-2.015.177-2.904.734-3.686.943-1.322 2.552-9.89 2.797-14.882.045-.925.27-1.743.499-1.819.273-.09.5 1.148.66 3.584.264 4.065 2.065 12.072 3.054 13.582.388.592.629 1.779.64 3.15.01 1.21.245 2.713.524 3.341l.506 1.14.427-1.07c.235-.588.445-1.615.466-2.281l.039-1.211.308 1.31c.17.72.431 3.266.58 5.658.21 3.363.422 4.497.932 5.008.581.58.669 1.652.733 8.983.04 4.578.23 8.48.42 8.673.19.192.243 1.342.116 2.557-.224 2.141-.189 2.255 1.153 3.74 1.106 1.224 1.385 1.838 1.385 3.053 0 .836.17 1.52.38 1.52s.38.561.38 1.248c0 .96.493 1.833 2.141 3.795 1.178 1.4 2.29 2.455 2.472 2.342.182-.112.331-.896.331-1.74 0-.846.279-2.124.619-2.84.428-.903.377-3.607.377-3.607-.222-1.893.382-4.522.95-4.522.185 0 .336.46.336 1.02 0 .563.144.824.28 2.351.135 1.528 0 0 .078 3.53.343 1.062.586 3.966.677 8.103.084 3.826.308 6.649.55 6.94.226.272.774.51 1.219.531.714.034.697.07-.142.301-.847.234-.972.51-1.142 2.53-.29 3.431-.999 4.035-2.66 2.266-1.115-1.186-3.304-1.388-2.694-.248.207.386.407 3.108.444 6.048.037 2.94.173 5.499.303 5.686.402.58 2.081.489 2.79-.154.547-.494.677-1.228.677-3.817 0-2.396.12-3.165.476-3.045.572.192.614 1.39.808 23.292.097 10.966.015 16.515-.25 16.846-.755.942-1.022-.389-1.028-5.13-.003-2.674-.167-4.735-.386-4.87-.215-.134-.38.177-.38.713 0 .792-.204.969-1.233 1.068-1.631.158-1.948 1.342-.406 1.518l1.068.123v3.107c0 2.747-.104 3.219-.902 4.067-.667.71-.839 1.212-.66 1.925.409 1.628-.146 3.969-1.004 4.241-.458.146-.892.036-1.088-.274-.541-.854-.38-3.52.269-4.447l.607-.868-1.82.118-1.82.117.096 2.325c.071 1.706-.062 2.484-.501 2.923-.847.847-.355 1.003 3.056.968 2.774-.028 5.094-.654 5.1-1.377.002-.151.482-.548 1.068-.88.834-.475 1.183-1.092 1.612-2.853l.549-2.247.12 1.877c.17 2.682-.125 3.454-1.673 4.368-.753.444-1.558 1.306-1.788 1.915-.431 1.143-1.472 1.705-2.064 1.114-.388-.39-10.93-.834-11.965-.505-.57.181-.618.357-.271 1.006.276.517.33 1.875.156 3.967-.262 3.141-.279 3.182-1.296 3.182-.567 0-1.236-.206-1.487-.457zm7.671-9.386c.183-.025.117-.304-.146-.622-.263-.317-.498-1.643-.522-2.947-.043-2.354-.051-2.37-1.15-2.37-1.088 0-1.108.037-1.164 2.195-.062 2.354-.748 3.523-1.825 3.11-.726-.279-1.023-2.84-.52-4.47.418-1.352.239-1.511-1.364-1.21l-1.304.244.029 2.537c.028 2.478.005 2.54-.992 2.655-1.364.158-1.97-1.014-1.744-3.37.168-1.752.138-1.818-.947-2.035-1.6-.32-1.792-.06-1.538 2.087.188 1.584.086 2.102-.589 3.015l-.815 1.103 2.756.111c2.489.101 11.018.077 11.835-.033zm-26.358-2.707c.118-1.36.289-2.729.38-3.043.123-.42-.2-.6-1.228-.686l-1.394-.116.11 2.398c.06 1.318-.034 2.675-.21 3.013-.418.81-.024 1.157 1.163 1.018.896-.104.98-.287 1.179-2.584zm6.821 2.407c0-.14-.3-.587-.665-.992-.468-.519-.666-1.374-.666-2.883v-2.145l-1.37-.115-1.37-.114-.043 2.554c-.024 1.405-.22 2.732-.436 2.948-.788.788-.345 1.002 2.078 1.002 1.36 0 2.472-.115 2.472-.255zm4.564-.103c0-.197-.171-.464-.38-.593-.21-.13-.38-1.337-.38-2.684v-2.45h-1.53c-1.479 0-1.519.034-1.257 1.046.15.575.275 1.944.28 3.042l.007 1.997h1.63c.896 0 1.63-.161 1.63-.358zm24.32-25.306c-.018-5.755-.127-7.134-.599-7.606-.699-.7-.542-.699-1.93-.007l-1.144.571.114 3.898c.063 2.144.123 4.488.135 5.21.016 1.02.122 1.21.477.856.644-.645 1.702-.567 1.975.145.127.33.23 1.243.23 2.028 0 1.256.224 1.934.637 1.934.07 0 .118-3.163.106-7.03zm-36.215-.504c.349-.221.474-3.236.5-12.069l.033-11.773-1.156-.119-1.157-.118-.103 7.618c-.113 8.315.158 15.58.607 16.307.33.532.625.568 1.276.154zm31.29-.453c0-.21-.17-.38-.38-.38s-.38.17-.38.38c0 .209.17.38.38.38s.38-.171.38-.38zm-13.31-26.241c0-.21-.257-.38-.57-.38-.314 0-.571.17-.571.38 0 .209.257.38.57.38.314 0 .57-.171.57-.38zm-7.267-1.753c.082-.072-.047-.366-.286-.655-.643-.774-.699-6.893-.07-7.65.659-.794.532-.876-1.505-.983-2.642-.139-2.692-.117-2.272.988.204.536.371 2.4.371 4.142 0 2.606-.112 3.21-.634 3.41-.349.134-.782.096-.962-.084-.338-.338-.552-6.519-.272-7.874.14-.679-.045-.76-1.73-.76h-1.886l.111 3.5c.121 3.828-.101 5.057-.914 5.057-1.027 0-1.411-1.544-1.246-5.001.157-3.278.139-3.366-.689-3.366-.805 0-.856.174-.972 3.328-.068 1.83-.036 3.926.072 4.658l.195 1.331 3.037.222c2.834.206 9.317.03 9.652-.263zm9.773.232c.4 0 .468-.68.317-3.182-.134-2.21-.027-3.661.35-4.754l.54-1.572h-2.262c-1.98 0-2.237.083-2.056.666.114.366.248 2.163.297 3.993.074 2.762-.025 3.441-.585 3.993-.643.634-.702.63-1.243-.095-.434-.58-.532-1.527-.411-3.993.087-1.778.225-3.575.306-3.993.172-.877-.88-1.164-2.885-.788l-1.222.23.346 2.18c.368 2.313.252 5.553-.238 6.633-.262.579.051.665 2.878.79 1.744.078 3.664.086 4.265.017.601-.07 1.323-.125 1.603-.125zm10.058-3.998c.112-2.298.336-4.457.497-4.796.225-.474.051-.663-.75-.816-1.558-.298-2.138.051-1.869 1.125.127.505.235 2.569.241 4.584.01 3.998.107 4.382 1.047 4.203.525-.1.663-.812.834-4.3zm3.695 3.823c.372-.312.163-5.587-.263-6.613-.725-1.752-1.149-.88-1.17 2.414-.012 1.728-.215 2.921-.577 3.4-.438.58-.456.803-.083 1.038.388.244 1.694.094 2.093-.24zm-7.993-3.153c-.143-2.22-.054-3.791.267-4.72l.48-1.39-1.369-.13c-.753-.072-1.734-.078-2.18-.015-.75.107-.783.236-.442 1.712.203.877.299 3.007.213 4.733l-.155 3.138h3.399l-.213-3.328zm6.946-5.42c0-.209-.181-.38-.403-.38-.221 0-.297.171-.168.38.13.21.31.38.403.38.092 0 .168-.17.168-.38zm-10.728-20.25c.078-2.055-.023-2.948-.332-2.948-.305 0-.389.657-.268 2.112.186 2.245-.212 2.832-1.917 2.832-.87 0-1.207-.698-1.207-2.503 0-.715-.17-1.3-.38-1.3s-.38.518-.38 1.15c0 1.338-1.014 1.892-3.46 1.892-1.175 0-1.573-.172-1.798-.782l-.29-.782-.964.759c-.53.417-1.421.873-1.98 1.013-.973.244-1.31.893-.754 1.449.144.144 3.268.215 6.94.158l6.68-.103zm-5.954-3.788c.008-3.748.383-5.17 1.084-4.104.206.314.377 1.545.38 2.735.003 1.19.176 2.27.385 2.398.248.154.32-1.902.209-5.967-.093-3.41-.181-6.287-.195-6.392-.013-.104-.19.067-.393.38-.203.314-.372 1.81-.375 3.324-.005 2.582-.056 2.747-.816 2.662-.867-.097-.897.177-.754 6.913.073 3.477.467 1.862.475-1.949zm-3.854-5.245c0-.209-.257-.38-.571-.38-.314 0-.57.171-.57.38 0 .21.256.38.57.38.314 0 .57-.17.57-.38zm3.803-2.472c0-.94-.172-1.711-.38-1.711-.42 0-.531 2.765-.128 3.17.45.448.508.282.508-1.459zm1.52-6.275c0-.209-.256-.38-.57-.38-.313 0-.57.171-.57.38 0 .21.257.38.57.38.314 0 .57-.17.57-.38zM126.1 141.017c-.133-.349-.122-.934.026-1.3.235-.58.314-.548.623.255.226.587.216 1.057-.026 1.3-.252.252-.46.167-.623-.255zm.995-7.27c-.65-.785-.345-2.649.46-2.801.544-.104.665.152.665 1.4 0 1.689-.435 2.231-1.125 1.4zm-36.847-7.378c-.698-.698-.819-1.255-.819-3.788 0-3.213.508-4.475 1.627-4.046.708.272.748.49.846 4.65.039 1.638-.119 3.022-.385 3.386-.408.559-.528.54-1.27-.202zm23.704-.586c-.448-.683-.568-1.697-.485-4.088.11-3.135.126-3.182 1.132-3.298.705-.081 1.144.113 1.42.63.437.816.354 6.456-.107 7.201-.455.736-1.314.541-1.96-.445zm-27.334-.073c-.127-.331-.231-1.692-.231-3.025 0-2.387-.02-2.432-1.308-3.043-2.276-1.08-2.66-.749-2.875 2.49-.105 1.566-.29 2.677-.411 2.468-.353-.608-.36-11.947-.009-14.452l.32-2.281.05 1.97c.042 1.689.2 2.078 1.1 2.718 1.048.747 1.05.747 2.09-.083 1.03-.82 1.043-.888 1.043-5.257v-4.427l-1.2-.598c-1.506-.751-1.807-.748-2.668.031-.67.607-.696.46-.696-4.016 0-3 .135-4.561.38-4.41.21.13.38.633.38 1.12 0 1.49 2.529 1.533 3.513.06.154-.23.282-2.772.285-5.648.004-3.401.146-5.23.406-5.23.246 0 .397 1.135.393 2.948-.004 1.621.06 6.285.142 10.363.142 7.01.283 23.776.23 27.287-.024 1.621-.502 2.14-.934 1.015zm21.47-.135c-.652-.653-.784-1.263-.784-3.628 0-2.629.073-2.892.97-3.48 1.468-.961 1.734-.326 1.611 3.854-.118 4.025-.44 4.61-1.797 3.254zm-13.31-.186c-.325-.39-.364-1.428-.142-3.703.253-2.597.43-3.185.992-3.293 1.341-.257 1.788.632 1.788 3.56 0 1.526-.104 3.046-.231 3.376-.288.75-1.804.787-2.408.06zm6.314.289c-.369-.37-.3-6.311.08-6.91.178-.28.731-.452 1.23-.381.89.126.906.197.796 3.52-.062 1.866-.2 3.534-.308 3.708-.233.378-1.44.42-1.798.063zm-6.144-8.847c-1.417-.278-1.724-1.368-.474-1.682 1.465-.368 24.75-.196 25.475.188.943.5.827.931-.38 1.403-1.101.431-22.489.51-24.62.09zm35.934-.408c0-.209.182-.38.403-.38.222 0 .297.171.168.38-.13.21-.31.38-.403.38-.092 0-.168-.17-.168-.38zm-34.678-5.203c.274-.11.602-.097.728.03.127.126-.098.216-.499.2-.443-.019-.533-.109-.23-.23zm-14.38-6.989c0-.43.163-.682.363-.558.2.124.267.476.15.783-.302.786-.514.694-.514-.225zm34.813-4.515c-.12-.194-.045-.461.168-.592.213-.132.387.027.387.354 0 .668-.229.766-.555.238zm-11.968-1.028c-.433-.551-.788-1.482-.788-2.07 0-.586-.171-1.172-.38-1.301-.21-.13-.571-.99-.803-1.913-.233-.922-.66-1.874-.951-2.116-.608-.504-.709-1.486-.153-1.486.206 0 .62.586.919 1.302.3.716.977 1.585 1.507 1.932.53.348 1.15 1.196 1.377 1.886.228.69.75 1.557 1.16 1.929.847.766.962 1.711.29 2.383-.703.703-1.317.549-2.178-.546zM81.823 87.711c0-.314.068-.57.15-.57.082 0 .248.256.368.57.12.313.053.57-.15.57-.202 0-.368-.257-.368-.57zm49.283-3.56c-.111-.18-.055-1.078.126-1.996l.328-1.67.041 1.996c.04 1.94-.079 2.344-.495 1.67z" fill="#252525"/><path style="isolation:auto;mix-blend-mode:normal" d="M64.226 150.255l51.045 88.423-23.458.22-13.628-23.756-13.725 23.629-11.655-.004-5.97-10.314 19.554-33.623-13.881-24.155zM127.499 182.174l51.053-88.418 11.92 20.206-13.76 23.68 27.327.071 5.823 10.097-5.947 10.326-38.895-.122-13.979 24.098z" color="#000" overflow="visible" fill="#5277c3" fill-rule="evenodd"/><path d="M86.567 184.513l102.099.004-11.539 20.425-27.387-.075 13.6 23.7-5.831 10.092-11.917.012-19.341-33.746-27.86-.056z" style="isolation:auto;mix-blend-mode:normal" color="#000" overflow="visible" fill="#7ebae4" fill-rule="evenodd"/></svg>