<?xml version="1.0" encoding="UTF-8" standalone="no"?>
<!-- Created with Inkscape (http://www.inkscape.org/) -->

<svg
   xmlns:dc="http://purl.org/dc/elements/1.1/"
   xmlns:cc="http://creativecommons.org/ns#"
   xmlns:rdf="http://www.w3.org/1999/02/22-rdf-syntax-ns#"
   xmlns:svg="http://www.w3.org/2000/svg"
   xmlns="http://www.w3.org/2000/svg"
   xmlns:sodipodi="http://sodipodi.sourceforge.net/DTD/sodipodi-0.dtd"
   xmlns:inkscape="http://www.inkscape.org/namespaces/inkscape"
   width="210mm"
   height="297mm"
   viewBox="0 0 210 297"
   version="1.1"
   id="svg8"
   inkscape:version="0.92.3 (2405546, 2018-03-11)"
   sodipodi:docname="nixcon2018-cleaned.svg">
  <defs
     id="defs2" />
  <sodipodi:namedview
     id="base"
     pagecolor="#ffffff"
     bordercolor="#666666"
     borderopacity="1.0"
     inkscape:pageopacity="0.0"
     inkscape:pageshadow="2"
     inkscape:zoom="1"
     inkscape:cx="390.29481"
     inkscape:cy="615.0365"
     inkscape:document-units="mm"
     inkscape:current-layer="layer3"
     showgrid="false"
     inkscape:window-width="1877"
     inkscape:window-height="1379"
     inkscape:window-x="0"
     inkscape:window-y="0"
     inkscape:window-maximized="0" />
  <metadata
     id="metadata5">
    <rdf:RDF>
      <cc:Work
         rdf:about="">
        <dc:format>image/svg+xml</dc:format>
        <dc:type
           rdf:resource="http://purl.org/dc/dcmitype/StillImage" />
        <dc:title></dc:title>
      </cc:Work>
    </rdf:RDF>
  </metadata>
  <g
     inkscape:groupmode="layer"
     id="layer3"
     inkscape:label="Ebene 2" />
  <g
     inkscape:label="Ebene 1"
     inkscape:groupmode="layer"
     id="layer1">
    <path
       sodipodi:nodetypes="cccccccccc"
       inkscape:connector-curvature="0"
       id="use4863-2-6-7"
       d="M 82.650476,113.833 31.596805,202.25057 19.677039,182.04508 33.436319,158.36513 6.1105716,158.29325 0.28686736,148.19685 6.2337894,137.87021 45.129162,137.99298 59.107883,113.89414 Z"
       style="color:#000000;clip-rule:nonzero;display:inline;overflow:visible;visibility:visible;opacity:1;isolation:auto;mix-blend-mode:normal;color-interpolation:sRGB;color-interpolation-filters:linearRGB;solid-color:#000000;solid-opacity:1;fill:#7ebae4;fill-opacity:1;fill-rule:evenodd;stroke:none;stroke-width:1.25318325;stroke-linecap:butt;stroke-linejoin:round;stroke-miterlimit:4;stroke-dasharray:none;stroke-dashoffset:0;stroke-opacity:1;color-rendering:auto;image-rendering:auto;shape-rendering:auto;text-rendering:auto;enable-background:accumulate" />
    <path
       sodipodi:nodetypes="cccccccccc"
       inkscape:connector-curvature="0"
       id="use4867-3-2-5"
       d="m 145.99213,145.77026 -51.045004,-88.422474 23.458334,-0.220049 13.62777,23.755845 13.72508,-23.628895 11.65559,0.0044 5.96968,10.313532 -19.55401,33.622891 13.88086,24.15536 z"
       style="color:#000000;clip-rule:nonzero;display:inline;overflow:visible;visibility:visible;opacity:1;isolation:auto;mix-blend-mode:normal;color-interpolation:sRGB;color-interpolation-filters:linearRGB;solid-color:#000000;solid-opacity:1;fill:#7ebae4;fill-opacity:1;fill-rule:evenodd;stroke:none;stroke-width:1.25318325;stroke-linecap:butt;stroke-linejoin:round;stroke-miterlimit:4;stroke-dasharray:none;stroke-dashoffset:0;stroke-opacity:1;color-rendering:auto;image-rendering:auto;shape-rendering:auto;text-rendering:auto;enable-background:accumulate" />
    <path
       style="color:#000000;clip-rule:nonzero;display:inline;overflow:visible;visibility:visible;opacity:1;isolation:auto;mix-blend-mode:normal;color-interpolation:sRGB;color-interpolation-filters:linearRGB;solid-color:#000000;solid-opacity:1;fill:#5277c3;fill-opacity:1;fill-rule:evenodd;stroke:none;stroke-width:1.25318325;stroke-linecap:butt;stroke-linejoin:round;stroke-miterlimit:4;stroke-dasharray:none;stroke-dashoffset:0;stroke-opacity:1;color-rendering:auto;image-rendering:auto;shape-rendering:auto;text-rendering:auto;enable-background:accumulate"
       d="m 123.51552,111.28932 -102.098616,-0.005 11.5386,-20.425541 27.387066,0.07588 -13.600695,-23.700635 5.831885,-10.091679 11.916613,-0.01302 19.341338,33.745727 27.859509,0.05656 z"
       id="use4875-9-6-5"
       inkscape:connector-curvature="0"
       sodipodi:nodetypes="cccccccccc" />
    <rect
       style="fill:#d9d9d9;fill-opacity:1;stroke-width:0.21466111"
       id="rect175"
       width="36.879555"
       height="40.692436"
       x="90.009773"
       y="81.245422" />
    <g
       id="g173"
       transform="matrix(0.81131759,0,0,0.81131759,138.6916,10.810074)">
      <g
         transform="translate(-36.837742,-16.500211)"
         id="g156">
        <path
           sodipodi:nodetypes="ccsscccccccsccccsccccccccccccsscscsccscccsscsccsssccscscccccccscccssscscccccscccscscscscccscccccsccccccsccccsccccccssccsssssccscsscsscsscccsccsccccccccscsccccscssccssss"
           inkscape:connector-curvature="0"
           id="path160"
           d="m 25.487315,322.72351 c 0,0 -2.670973,-1.18583 -4.091116,0.90403 -0.422314,0.64453 -1.102809,1.17187 -1.512217,1.17187 -0.409405,0 -2.566642,-1.44546 -4.793854,-3.21213 -5.0983891,-4.04414 -7.420888,-5.53057 -9.218324,-5.89987 -0.7803757,-0.16033 -2.1920887,-1.08821 -3.1371354,-2.06195 -1.84079049,-1.89669 -6.1105794,-4.29619 -7.6381668,-4.29243 -0.5119239,10e-4 -2.3018553,0.70563 -3.9776279,1.56527 -3.4613919,1.77564 -7.1910379,2.4579 -9.2036619,1.68363 -0.738737,-0.28419 -2.179081,-0.66187 -3.200758,-0.83927 -1.780154,-0.30912 -1.899244,-0.4435 -2.856398,-3.2231 -1.215702,-3.53045 -1.949324,-4.4893 -3.187109,-4.16561 -0.569392,0.1489 -1.694433,-0.26767 -2.875339,-1.06465 -3.824656,-27.16302 -1.236958,-83.08049 0.129544,-124.58703 0.127096,-4.0698 0.05913,-4.42262 -1.264076,-6.56247 -0.769112,-1.24379 -1.830778,-2.52643 -2.359249,-2.85033 -0.959006,-0.58776 -0.9603,-0.65605 -0.669212,-35.39044 0.173647,-20.7214 0.471241,-35.027212 0.735544,-35.359334 0.244148,-0.306786 0.903188,-0.62319 1.464541,-0.703121 0.916182,-0.130453 1.034793,-0.467702 1.158922,-3.295145 0.135361,-3.08338 0.158617,-2.684109 0.185567,-4.981889 0.303897,-3.754224 -0.0472,-1.642376 0.303897,-3.754224 0.299248,-1.812019 0.557097,-5.257843 0.572992,-7.65739 0.03056,-4.614168 0.860335,-10.103689 1.560625,-10.324708 1.141902,-0.360392 2.16154,4.035208 2.151828,9.276415 -0.0058,3.104281 0.259166,5.512743 0.795507,7.232306 l 0.804132,2.578112 3.423221,-3.250976 3.423221,-3.250975 v -2.538057 c 0,-2.259785 0.174163,-2.71222 1.588525,-4.126581 l 1.588529,-1.588529 0.05923,-11.248765 c 0.03258,-6.186821 0.240374,-11.726249 0.461768,-12.309838 1.362776,-3.592189 1.883119,-6.410549 2.142482,-11.604445 0.160831,-3.220743 0.41193,-6.332055 0.557997,-6.914026 0.29765,-1.185945 1.4601671,-1.421496 1.8609509,-0.377069 0.2127318,0.554363 0.4497962,0.576164 1.2743466,0.117187 1.4265254,-0.79406 1.7601659,-1.35313 1.4916673,-2.499521 -0.1361524,-0.581314 0.1455602,-1.480404 0.6745793,-2.152946 1.1141614,-1.416426 2.7076173,-8.971188 3.0977981,-14.687016 0.3592781,-5.2627944 0.9271986,-7.2398797 2.07968954,-7.2398797 0.91130154,0 0.89737036,-0.06696 1.65633363,7.9607897 C 1.15384,15.50783 3.1894935,23.798256 4.2689161,25.544799 c 0.5794001,0.937487 0.9320295,2.396893 0.9662621,3.999007 0.051544,2.412294 0.068878,2.445571 0.3958011,0.759803 0.3989698,-2.057295 0.6779731,-2.42857 1.5682747,-2.08693 0.7659851,0.293937 1.2632513,4.242666 1.2632513,10.03137 0,3.194587 0.1758976,4.173441 0.9352686,5.204649 0.8428691,1.144595 0.9660701,2.302348 1.2470331,11.718495 0.171467,5.746634 0.480274,10.552571 0.686232,10.67986 0.205954,0.127288 0.249617,1.568382 0.09703,3.202436 -0.270786,2.899752 -0.243299,2.996244 1.145989,4.023391 1.062107,0.785251 1.50017,2.093298 1.725751,3.597547 1.121878,2.552176 16.914826,78.082503 12.358021,94.320513 -0.656218,2.33841 -0.473531,5.24997 -0.664039,5.77631 -0.459566,35.77206 0.110563,115.98358 -0.506476,145.95226 z m -0.754899,-97.76906 c 8.070217,59.03051 4.035109,29.51525 0,0 z m -55.48191,-1.37919 c 45.058157,59.94997 22.5290787,29.97498 0,0 z M 26.433917,98.191059 c 0.188469,0.179525 2.275251,0.43981 2.313898,1.088938 0.44521,7.477823 0.105238,25.384423 0.105238,34.662723 0.01558,13.66111 1.365062,23.98206 -0.465628,34.25651 C 17.304857,184.99508 8.1695539,78.406645 17.208447,84.009249 c 2.292387,2.714567 2.093657,2.379158 2.600996,2.707614 0.5764,0.373167 0.04474,-1.345973 0.06937,-1.977422 0.109773,-2.814872 1.194376,-8.848849 1.364315,-10.403841 0.221065,-2.022817 1.545344,-4.075349 1.545344,-4.075349 1.71172,1.46934 1.870646,10.32272 2.169912,11.216427 0.408935,1.221215 1.168625,8.841828 1.475536,16.714381 z M -7.7092571,138.70667 c 0.1593366,-0.25781 0.1117963,-0.46875 -0.1056464,-0.46875 -0.2174379,0 -0.7656851,-0.62693 -1.2183218,-1.39319 -0.7566523,-1.28091 -0.7638289,-1.50755 -0.089025,-2.81248 0.4036713,-0.78062 1.0695226,-1.4193 1.4796767,-1.4193 0.7488899,0 0.7361774,0.52662 -0.075661,3.13402 -0.2785438,0.89462 -0.1004338,1.06567 1.4034115,1.34779 1.9244245,0.36103 2.4382375,0.0404 2.6674128,-1.66453 0.2156239,-1.60409 1.797497,-1.89532 1.797497,-0.33093 0,1.52398 0.87510954,2.17497 2.50356675,1.8624 1.38497095,-0.26584 1.41220985,-0.43628 0.52646445,-3.29407 -0.50493018,-1.62912 1.0134838,-1.34695 1.8918184,0.35156 0.865008,1.67275 1.4480456,1.75057 2.8994616,0.38704 1.4620049,-1.37348 1.3651382,-2.12599 -0.3213499,-2.4964 -0.9907918,-0.21762 -1.4062428,-0.58583 -1.4062428,-1.24636 0,-0.81472 0.1995131,-0.8931 1.5234296,-0.59853 0.8378863,0.18642 1.8261281,0.36139 2.1960918,0.3888 0.8585065,0.0636 1.5289281,-2.81592 0.7901209,-3.39365 -0.8603768,-0.6728 -4.0408947,-1.0179 -4.0408947,-0.43845 0,0.90251 -2.3471457,3.62526 -3.75093219,4.35119 -1.37019136,0.70855 -4.91734491,0.94438 -6.28880191,0.4181 -1.4529018,-0.55753 -0.7064213,-1.12173 1.4850908,-1.12244 4.67016493,-0.001 7.5707749,-3.04876 6.9353688,-7.28592 -0.3810167,-2.54081 -1.9891537,-4.55481 -4.4105303,-5.52365 -1.9502055,-0.78032 -2.5333978,-1.91246 -2.100397,-4.07747 0.1407649,-0.70383 0.045,-1.41006 -0.2128301,-1.56941 -0.2578205,-0.15934 -3.3903856,-0.34312 -6.9612489,-0.40841 l -6.492482,-0.11869 -0.129566,6.88783 -0.129571,6.88784 2.238935,0.14338 c 1.61394,0.10335 2.238931,0.33965 2.238931,0.8465 0,0.54605 -0.497374,0.6717 -2.226551,0.56245 l -2.226551,-0.14066 v 6.35157 6.35157 h 4.65981 c 2.600911,0 4.7878158,-0.20712 4.9495159,-0.46875 z m -6.2435069,-6.12723 c 0.197549,-1.28062 2.511175,-2.71445 3.226226,-1.9994 0.37653,0.37653 0.157719,0.8497 -0.806298,1.74359 -1.601645,1.48513 -2.626275,1.59344 -2.419928,0.25581 z m 8.352871,-6.9977 c -0.5156224,-0.51562 -0.9388874,-1.51757 -0.9405842,-2.22655 -0.00188,-0.70898 -0.4221822,-1.92187 -0.9344061,-2.6953 -0.512224,-0.77343 -0.9327093,-1.79767 -0.9344062,-2.27607 -0.00187,-0.47841 -0.53043,-1.49654 -1.1749579,-2.26252 -1.6567696,-1.96896 -1.5604046,-3.19575 0.251033,-3.19575 1.2399499,0 1.5391561,0.27122 2.3270786,2.10937 0.5301957,1.2369 1.212561,2.10936 1.6497524,2.10936 0.4530258,0 1.1929533,1.0116 1.8857387,2.57811 0.6270906,1.41796 1.3497399,2.57811 1.6058917,2.57811 0.2561472,0 0.6002126,0.53584 0.7645883,1.19076 0.63110298,2.51451 -2.5826539,4.00755 -4.4997283,2.09048 z m -8.32027,-5.72833 c -1.068003,-0.51508 -1.467076,-1.77163 -0.562656,-1.77163 0.834193,0 3.257955,1.40385 3.257955,1.88702 0,0.5905 -1.351629,0.53264 -2.695299,-0.11539 z m 22.9686318,18.85842 2.2265512,-0.005 v -4.27612 c 0,-3.74785 -0.08686,-4.20404 -0.703122,-3.69258 -0.386716,0.32094 -0.7031209,0.87882 -0.7031209,1.23973 0,1.0892 -3.6011486,4.64449 -5.6319881,5.56027 -2.2270292,1.00425 -1.6863898,1.82006 0.9445123,1.42523 0.9023391,-0.13542 2.6425644,-0.24853 3.8671675,-0.25137 z M 8.0321256,124.64424 c 1.1988735,0 1.3679039,-0.16903 1.3679039,-1.3679 0,-2.47691 -0.3747731,-2.87693 -2.3929939,-2.55421 -1.5018204,0.24016 -1.8257343,0.15479 -1.8257343,-0.48113 0,-0.42519 0.527341,-1.01335 1.1718689,-1.30702 1.5194359,-0.6923 1.4780221,-1.32099 -0.1924443,-2.9214 l -1.3643133,-1.30709 -0.5808532,1.10221 c -0.3194655,0.60621 -0.805838,1.24833 -1.0808288,1.42692 -0.3311608,0.21507 -0.1558398,0.93703 0.5192504,2.13819 0.56058,0.99741 1.1623534,2.7085 1.3372806,3.80242 0.234716,1.46783 0.4955412,1.92083 0.9955027,1.72898 0.3725981,-0.14298 1.2930121,-0.25997 2.0453613,-0.25997 z m 2.6372914,-12.52518 c -0.455506,-0.45551 -1.6022827,-0.6047 -3.8874177,-0.50574 l -3.2413145,0.14037 2.1423779,1.48803 c 1.4697065,1.02082 2.6471395,2.41902 3.7499807,4.4531 l 1.6076026,2.96507 0.137441,-3.94736 c 0.100223,-2.87846 -0.0375,-4.12232 -0.50867,-4.59347 z m -8.5960481,3.97054 c 0.4613507,-1.72152 0.3369029,-2.6953 -0.3444592,-2.6953 -0.3519497,0 -1.19569535,-0.43718 -1.87499028,-0.97152 l -1.23508422,-0.97151 v 2.3387 c 0,2.12467 0.117965,2.38178 1.28905582,2.8095 1.82439838,0.66633 1.85201228,0.65982 2.16547788,-0.50987 z"
           style="fill:#9d9d9d;stroke-width:0.46874756" />
        <path
           sodipodi:nodetypes="cssccscccccccccscccccscccccscssscscccsccscccssccccscccsssccccsccsccsscscsssssccccccssscscscccccccccccccccsccssccccscccsccccssscccccccssccccscsssscccccsccsccccccsccssccsccsccccscscscccccscsssccsccsccsccscccccccsccscscscssscscccsccsccccccccccccscccccccsscscccsccsscccscccscscsccscscccsscsscccscscscsccccccscscccccccsccssscsccscsccccccscccsccsccscssccccccccccccscscccccccccsccccccsccsccccccsccscscscccscccccsccssccssccscccsccscscssssssccsscccccccccsccsssscsssssszcscccccscccscscccscccscscccccccccccscsccccscscccscssccscccccccccccscccsccsccscccccsccccscscccsccccccccccsscccscccscccsssssscssscccccscccscsssscccsccccccsssccccccsccccccccsccccccscccsccccscccccsccsscccssssscccccscccsccccscsscssssssscsscsssccccccccsccsccccsccscscccscccsccscccscsccscsccccccsccccsccccccsccccscccscssscssccsccsccsccssccsccccccsccsscccsccc"
           inkscape:connector-curvature="0"
           id="path158"
           d="m 25.487315,322.72351 c -2.224577,-1.51163 -3.203627,-1.51947 -4.177328,-0.0334 -0.422309,0.64453 -1.089388,1.17187 -1.482396,1.17187 -0.393007,0 -2.108975,-1.12333 -3.813257,-2.49628 -4.7687,-3.84162 -7.9283399,-5.88021 -9.9629482,-6.42807 -1.0207212,-0.27486 -1.982821,-0.8306 -2.1379998,-1.23499 -0.3573263,-0.93118 -5.300982,-4.14656 -7.4820926,-4.86638 -1.7881033,-0.59013 -3.6758764,-0.0137 -7.1874094,2.19474 -1.722343,1.08319 -4.73752,1.21635 -9.250818,0.40854 -2.378899,-0.42578 -2.531134,-0.59569 -3.877518,-4.32773 -1.198573,-3.32231 -1.900199,-4.09916 -3.357925,-3.71796 -1.008894,0.26384 -3.669885,-0.94276 -3.669885,-1.66406 2.043904,-16.07847 7.334468,2.37979 0,0 -0.168709,-33.53797 1.693754,-81.55134 1.867778,-122.75278 0.0065,-4.06532 -0.12059,-4.72904 -1.328305,-6.93752 -0.734518,-1.34316 -1.785314,-2.75719 -2.335108,-3.14228 -0.919612,-0.64412 -0.994832,-1.09365 -0.939759,-5.61615 0.03291,-2.70379 0.239975,-5.0273 0.460113,-5.16335 0.220143,-0.13605 0.403362,0.97796 0.407164,2.47559 0.0063,2.49751 0.05583,2.62628 0.597709,1.55525 0.324936,-0.64225 0.964772,-1.23974 1.421852,-1.32777 1.579726,-0.30422 2.192258,0.80198 2.192258,3.95912 0,3.09606 -0.06432,3.18295 -2.226551,3.00781 -0.580076,-0.047 -1.05329,0.0879 -1.051593,0.29967 0.0048,0.59646 1.597904,2.87264 2.783999,3.97766 0.87759,0.8176 1.023454,1.32934 0.817201,2.86705 -0.138084,1.0295 -0.08206,2.31755 0.124494,2.86233 0.353164,0.93147 0.623468,0.97654 4.53429,0.75614 l 4.158737,-0.23437 0.250808,-1.87499 c 0.336894,-2.51857 0.73652,-3.04686 2.304818,-3.04686 1.661007,0 1.770886,0.35456 1.452602,4.68747 -0.255383,3.47665 -0.273575,3.51735 -1.641376,3.67301 -0.851513,0.0969 -1.584624,-0.11817 -1.907376,-0.55956 -0.383253,-0.52413 -1.681711,-0.77073 -4.827781,-0.9169 l -4.303525,-0.19994 -0.0052,4.50948 c -0.0028,2.48022 -0.05561,14.89814 -0.117187,27.5954 -0.105032,21.65701 -0.06153,23.08591 0.702784,23.08582 0.695143,-9e-5 0.808018,-0.44845 0.768929,-3.05421 -0.04664,-3.10869 0.496282,-4.44586 1.805105,-4.44586 0.487492,0 0.587987,0.24565 0.335595,0.82031 -0.443571,1.00994 -1.2152,10.44103 -0.920442,11.24994 0.339274,0.93108 2.579377,0.73129 2.627803,-0.23437 0.02264,-0.45117 0.123351,-3.10035 0.223837,-5.88706 0.100485,-2.78672 0.315926,-5.28231 0.47875,-5.54577 0.162824,-0.26346 0.812855,-0.3493 1.444507,-0.19077 1.099644,0.276 1.1423,0.2029 1.003542,-1.71982 l -0.144937,-2.00806 -2.109364,-0.13222 c -1.160151,-0.0727 -2.419858,-0.24226 -2.799347,-0.37677 -1.275326,-0.45204 0.533908,-1.12435 2.330599,-0.86605 0.902339,0.12973 1.933092,0.0401 2.290559,-0.19927 0.791724,-0.53005 1.298735,-4.97681 0.615587,-5.39902 -0.265461,-0.16406 -1.766217,-0.43246 -3.335017,-0.59643 -1.5688,-0.16397 -2.852362,-0.46849 -2.852362,-0.67671 0,-0.20822 1.212884,-0.44184 2.695299,-0.51916 l 2.695298,-0.14058 0.234374,-15.21534 0.234374,-15.21534 1.640616,-0.36121 c 0.902339,-0.19866 5.332004,-0.23178 9.8436995,-0.0736 4.5116954,0.15818 11.1561924,0.31219 14.7655487,0.34226 l 6.5624658,0.0547 0.09398,1.40624 c 0.05169,0.77344 0.129824,7.5234 0.173633,14.99993 0.04837,8.25324 0.264186,13.82387 0.549358,14.17961 0.2873,0.3584 1.63059,0.58593 3.459156,0.58593 2.834306,0 2.989466,-0.0578 2.989466,-1.11327 0,-0.6123 0.131835,-1.77245 0.292967,-2.57811 0.252496,-1.26247 0.159177,-1.46484 -0.675456,-1.46484 -0.532633,0 -1.085258,-0.18904 -1.228053,-0.42009 -0.142799,-0.23105 -0.395557,-5.08258 -0.561691,-10.78119 -0.216561,-7.42842 -0.155572,-10.36111 0.215474,-10.36111 1.175305,0 1.488011,2.11143 1.488011,10.04726 0,4.52865 0.169701,8.2339 0.377117,8.2339 0.207416,0 0.424179,-6.03121 0.481699,-13.40269 0.08352,-10.70356 -0.01603,-13.36282 -0.494308,-13.20475 -0.387336,0.12801 -0.648081,1.31285 -0.738161,3.35431 -0.130218,2.95099 -0.206478,3.14684 -1.171868,3.0095 -0.858694,-0.12215 -1.039959,-0.46265 -1.076343,-2.02188 -0.09672,-4.14448 -0.152934,-4.34201 -1.318944,-4.63466 -0.620574,-0.15576 -1.46432,-0.41213 -1.87499,-0.56971 -0.531588,-0.20399 -0.746668,-0.0131 -0.746668,0.66278 0,1.71641 -0.538989,2.43223 -1.831392,2.43223 -1.98531,0 -2.3880158,-0.78913 -2.3801596,-4.66404 0.00778,-3.83728 0.2083255,-4.43536 1.6334396,-4.87141 1.515996,-0.46386 2.222356,0.37294 2.467385,2.92302 l 0.230005,2.3937 h 4.82315 c 3.419921,0 4.891934,-0.17047 5.059577,-0.58594 0.130035,-0.32226 0.253081,-0.13389 0.273434,0.4186 0.02034,0.55249 -0.279397,1.12594 -0.666114,1.27435 -0.823491,0.316 -0.976705,3.35605 -0.193531,3.84008 0.366959,0.22679 0.366959,0.45758 0,0.82453 -0.601497,0.6015 -0.486412,9.4428 -0.294361,12.29263 -0.274418,10.17192 0.536167,15.65874 0.452227,30.7894 0.456387,6.73139 1.61986,6.15719 1.150445,37.83657 0.0033,13.9408 0.134184,25.55471 0.291163,25.8087 0.156974,0.254 0.09225,0.80697 -0.143845,1.22884 -0.912445,1.63045 -1.240657,-0.65896 -1.251289,-8.72831 l -0.01083,-8.20309 h -4.453102 -4.453102 l -0.25108,1.87499 c -0.487731,3.64218 -0.922439,-3.61368 -1.165461,-19.45302 -0.401951,-26.19802 -0.689832,-30.62783 -1.911074,-29.40658 -0.163012,0.16301 -0.0701,0.94551 0.206478,1.7389 0.310907,0.89185 0.400555,3.45086 0.234852,6.70358 -0.147407,2.89358 -0.314412,10.63994 -0.371121,17.21412 -0.05671,6.57419 -0.138004,12.21146 -0.180656,12.52728 -0.09342,0.69178 -2.9396421,0.25629 -3.4687878,-0.53074 -0.1894116,-0.28172 -0.3476139,-2.14449 -0.3515607,-4.13949 -0.00689,-3.48035 -0.049893,-3.62274 -1.0618586,-3.51561 -1.2044375,0.12752 -1.0569274,1.97202 -1.4066412,-17.58925 -0.2135614,-11.9455 -0.1269884,-12.43634 2.1036735,-11.92706 1.2861637,0.29364 3.1099246,-0.29843 2.3554941,-0.76469 -0.8310754,-0.51363 -22.5375753,-0.82732 -22.8448493,-0.33014 -0.149333,0.24163 -0.314562,5.40397 -0.367175,11.47188 -0.08545,9.85525 -0.01027,11.11791 0.704402,11.8326 0.440032,0.44003 0.86362,0.70714 0.941306,0.59358 0.07769,-0.11356 9.37e-4,-5.16348 -0.170489,-11.22204 -0.171453,-6.05856 -0.217545,-11.17377 -0.102421,-11.36712 0.339584,-0.57037 5.2228887,-0.40332 5.5903446,0.19123 0.1845038,0.29853 0.3755793,5.2028 0.424615,10.89838 0.054042,6.27733 0.328114,11.51985 0.6959261,13.31191 0.4596633,2.23959 0.4804616,3.37603 0.085776,4.68748 -0.2865454,0.95213 -0.5857329,3.23948 -0.6648528,5.08299 l -0.1438633,3.35184 1.5874934,0.48722 c 1.1575159,0.35525 1.839628,0.33612 2.5183932,-0.0706 0.7897037,-0.47322 1.039429,-0.39786 1.6464196,0.49685 0.54704251,0.80635 1.17113303,1.05565 2.6505191,1.05876 3.0704232,0.006 6.8568537,0.55796 6.8568537,0.99871 0,0.2219 -2.0867986,0.40346 -4.6373245,0.40346 -3.79621789,0 -4.6889336,0.13448 -4.9218496,0.74146 -0.4942802,1.28806 -0.317253,1.9602 0.89604852,3.40212 1.06528513,1.26602 1.53447333,1.43294 4.80466268,1.70931 1.993246,0.16845 3.9345828,0.40836 4.3140715,0.53314 1.4474128,0.47591 -0.613975,1.051 -2.827537,0.78884 -2.2321291,-0.26436 -3.6925919,0.52446 -1.9936959,1.07683 3.4541868,1.12307 6.2406146,4.12133 6.2406146,6.71505 0,0.91998 0.3354451,1.44177 1.1718691,1.82287 0.687423,0.31321 1.171869,0.92565 1.171869,1.48148 0,0.52115 0.227694,0.94755 0.505994,0.94755 0.305136,0 0.398501,-0.51169 0.235204,-1.28906 -0.29068,-1.38375 0.361582,-3.09943 0.727763,-1.91429 0.106256,0.34388 0.188343,1.89085 0.182423,3.43772 -0.01059,2.76526 -0.03164,2.81005 -1.255053,2.66762 -1.569006,-0.18267 -2.122269,0.65528 -1.145371,1.73474 0.411973,0.45522 0.74904,1.1478 0.74904,1.53906 0,1.98517 5.3547,8.79939 6.928736,8.81729 1.194552,0.0136 1.151394,-1.42301 -0.07695,-2.5614 -0.674739,-0.62534 -1.226806,-1.54466 -1.226806,-2.04294 0,-0.49829 -0.511343,-1.24102 -1.136319,-1.65052 -1.412534,-0.92552 -1.886362,-2.31338 -1.216897,-3.5643 0.676581,-1.26419 2.923204,-1.25497 4.646446,0.0191 1.15574,0.85448 1.550702,0.91156 3.212056,0.4642 1.908444,-0.51389 1.5875,-0.79263 1.5875,0 0.06213,8.05161 0.264379,6.9589 0.557083,27.42249 z m -3.057172,-51.47847 -0.139555,-2.92968 -3.66503,-0.38934 c -2.015769,-0.21414 -3.966931,-0.27349 -4.335915,-0.13189 -0.799744,0.30689 -0.927942,4.08691 -0.185647,5.4739 0.421404,0.7874 1.010188,0.90668 4.47547,0.90668 h 3.990228 z m -32.717512,-5.27341 c 0,-0.38672 -0.316404,-0.70312 -0.703121,-0.70312 -0.731982,0 -0.929981,0.55438 -0.390622,1.09374 0.539355,0.53936 1.093743,0.34136 1.093743,-0.39062 z m 32.909915,-8.55465 c 0.07523,-4.83396 0.07052,-10.92889 -0.01045,-13.54429 l -0.147257,-4.75528 -1.727733,-0.41697 c -0.950254,-0.22934 -2.940617,-0.33751 -4.423032,-0.24038 l -2.695298,0.1766 v 13.22217 c 0,9.65892 0.151588,13.37376 0.562497,13.78467 0.346681,0.34668 2.047719,0.5625 4.433499,0.5625 h 3.871006 l 0.136786,-8.78902 z m -4.941308,3.78904 c -0.171875,-0.17187 -0.3125,-4.03387 -0.3125,-8.58223 0,-8.92306 0.142786,-9.50345 2.471219,-10.04483 1.572892,-0.36571 1.990391,0.38865 1.540956,2.78433 -0.316817,1.68878 -1.199689,1.82871 -1.199689,0.19015 0,-0.5004 -0.316405,-0.90983 -0.703122,-0.90983 -0.598956,0 -0.703121,1.25 -0.703121,8.43746 0,7.70577 -0.179502,9.0392 -1.093743,8.12495 z m 2.792953,-2.87392 c -0.12711,-0.20567 -0.03731,-0.68028 0.199532,-1.05469 0.336228,-0.53149 0.432213,-0.44951 0.437819,0.37395 0.0074,1.08422 -0.230773,1.33859 -0.637351,0.68074 z m 0.249791,-9.46976 c 0,-0.64453 0.106396,-0.9082 0.236432,-0.58593 0.130035,0.32226 0.130035,0.8496 0,1.17187 -0.130036,0.32226 -0.236432,0.0586 -0.236432,-0.58594 z m -37.19296,15.49797 c 0.117187,-0.35156 -0.05859,-0.52734 -0.410154,-0.41016 -0.338379,0.1128 -0.707518,0.48194 -0.820308,0.82031 -0.117187,0.35156 0.05859,0.52734 0.410154,0.41015 0.338375,-0.11279 0.707514,-0.48193 0.820308,-0.8203 z M -28.31533,256.8006 c 0.169686,-0.27456 0.955406,-0.43276 1.746042,-0.35156 1.728549,0.17753 2.079969,-0.52357 0.945844,-1.887 l -0.835716,-1.00469 -1.52343,0.97976 c -0.841261,0.54104 -1.52343,1.37894 -1.52343,1.87122 0,0.96699 0.694159,1.19567 1.19069,0.39227 z m 34.8956975,-2.43048 c -0.00375,-1.3535 -0.2137911,-2.77732 -0.4663148,-3.16404 -0.3213499,-0.49211 -0.4417336,0.24643 -0.4011448,2.46092 0.031875,1.74023 0.2417378,3.16405 0.4663148,3.16405 0.2245769,0 0.4050916,-1.10742 0.4011448,-2.46093 z m 0.00718,-5.74215 c 0,-0.64453 -0.2109364,-1.17187 -0.4687476,-1.17187 -0.2578111,0 -0.4687475,0.52734 -0.4687475,1.17187 0,0.64453 0.2109364,1.17187 0.4687475,1.17187 0.2578112,0 0.4687476,-0.52734 0.4687476,-1.17187 z m -0.617289,-4.54099 c -0.1496336,-0.37394 -0.260708,-0.26287 -0.2831985,0.2832 -0.020344,0.49413 0.090431,0.77099 0.2461956,0.61523 0.1557601,-0.15576 0.17241,-0.56006 0.036984,-0.89843 z M -19.765755,235.9346 c -0.170034,-8.47384 -1.020544,-8.54833 -1.199873,-0.10508 -0.136433,6.42344 0.04519,7.91597 0.863677,7.09749 0.278774,-0.27878 0.414336,-3.09826 0.336196,-6.99241 z m 25.7406447,0.86641 c -0.1188462,-0.45608 -0.2239019,-0.19642 -0.233455,0.57702 -0.00956,0.77343 0.087684,1.14658 0.2160879,0.82922 0.1283994,-0.31735 0.1362134,-0.95016 0.017391,-1.40624 z m 11.5691163,-0.22325 c 0.03253,-0.0755 -0.04636,-2.65963 -0.175265,-5.74257 -0.228434,-5.46334 -0.263178,-5.6121 -1.371489,-5.87227 -2.262448,-0.5311 -1.598195,-1.35934 1.207667,-1.50582 l 2.710579,-0.1415 0.415869,-1.76652 c 0.228725,-0.97159 0.282204,-2.29906 0.118846,-2.94993 -0.287567,-1.14577 -0.404632,-1.17903 -3.681422,-1.04596 l -3.384404,0.13744 0.06122,9.00824 c 0.03366,4.95454 0.195613,9.35846 0.359867,9.7865 0.231707,0.60381 0.677524,0.71677 1.989032,0.50394 0.929714,-0.15087 1.716989,-0.33607 1.749497,-0.41155 z m 4.894245,-0.95754 c 0.109242,-0.57645 -0.146132,-0.82031 -0.859078,-0.82031 -0.985955,0 -1.410933,0.93042 -1.255581,-3.85329 0.144074,-4.43654 0.479784,-5.99141 -0.259552,-5.99093 -0.731124,4.7e-4 -0.820308,0.55693 -0.820308,5.11841 0,2.81484 -0.133565,5.46595 -0.296811,5.89137 -0.249604,0.65046 -0.0079,0.74974 1.519529,0.62427 1.283572,-0.10544 1.861941,-0.38982 1.971801,-0.96952 z m -33.663111,-1.99217 c 0,-0.38672 -0.0829,-0.70313 -0.184223,-0.70313 -0.101324,0 -0.305637,0.31641 -0.454038,0.70313 -0.148397,0.38671 -0.06549,0.70312 0.184222,0.70312 0.249721,0 0.454039,-0.31641 0.454039,-0.70312 z m 22.871862,-10.15148 0.137606,-3.12027 -3.887586,-0.28246 c -2.1381733,-0.15536 -7.26256874,-0.37567 -11.3875474,-0.48959 -4.1249787,-0.11392 -7.8691006,-0.21745 -8.3202696,-0.23006 -1.700964,-0.0476 -0.736122,-0.91263 1.171868,-1.05067 l 1.9921782,-0.14414 0.1428696,-2.22655 c 0.1577429,-2.45836 0.023672,-2.54209 -2.4293648,-1.51714 -1.143472,0.47777 -1.69786,1.01347 -1.69786,1.64061 0,0.92443 -0.674256,1.26761 -1.108869,0.56439 -0.124687,-0.20174 -0.277062,-5.00054 -0.338619,-10.664 -0.128816,-11.85238 -0.399316,-16.69803 -0.914375,-16.37971 -0.199345,0.1232 -0.379696,2.17498 -0.400776,4.5595 -0.02109,2.38453 -0.127297,10.51925 -0.236033,18.07717 -0.19761,13.73513 -0.197221,13.74185 0.814552,14.12503 0.556737,0.21085 6.7075349,0.35519 13.6684365,0.32076 l 12.6561845,-0.0626 z m -41.123572,-2.82353 c 44.209543,61.89811 22.1047722,30.94906 0,0 z m 41.128911,-4.25328 c 0.130354,-2.03211 0.03478,-2.26948 -1.085197,-2.69529 -1.6786224,-0.63821 -1.6358586,-0.66889 -1.6358586,1.17367 0,1.14583 -0.212052,1.64062 -0.7031214,1.64062 -0.5784157,0 -0.7116291,-0.89372 -0.7511023,-5.03904 -0.033656,-3.53284 -0.1579258,-4.57452 -0.4158073,-3.48498 -0.2023067,0.85473 -0.8135254,2.02848 -1.3582617,2.60832 -0.5447409,0.57985 -0.9904355,1.42957 -0.9904355,1.88825 0,0.45869 -0.4166744,0.94295 -0.9259452,1.07613 -0.6027485,0.15762 -1.0299931,0.79676 -1.2240359,1.8311 -0.3146655,1.67732 -1.0726773,2.15651 -1.2159125,0.76866 -0.046547,-0.45117 -0.099299,-6.93434 -0.1171868,-14.40705 -0.029812,-12.45865 -0.099436,-13.59967 -0.83835509,-13.74245 -0.74765239,-0.14446 -0.80133336,0.79243 -0.74356491,12.9775 0.0681606,14.37669 -0.0225468,14.90449 -2.4768481,14.41363 -1.0021074,-0.20042 -1.3189385,-0.0519 -1.5187188,0.7121 -0.138843,0.53094 -0.5300503,0.8724 -0.8693486,0.75879 -0.4843616,-0.16219 -0.6201577,-2.4136 -0.6320358,-10.47902 -0.020437,-13.85965 -0.1445664,-17.17078 -0.6325092,-16.86921 -0.4112417,0.25416 -0.7546368,28.1105 -0.3544951,28.75736 0.1154244,0.1866 4.2904513,0.33927 9.2778318,0.33927 h 9.067961 z M 7.3794134,200.69853 c -0.1179041,-0.45117 -0.2143724,-0.082 -0.2143724,0.82031 0,0.90234 0.096468,1.27148 0.2143724,0.82031 0.1178993,-0.45117 0.1178993,-1.18945 0,-1.64062 z m 0.2248769,-10.62696 c -0.4955412,-0.91562 -0.9074953,1.5376 -0.6283889,3.74211 l 0.2930422,2.31456 0.2844923,-2.81248 c 0.1564726,-1.54687 0.1793569,-3.00676 0.050854,-3.24419 z M 18.295363,287.6512 c -0.163475,-8.81268 -0.111004,-10.26088 0.389928,-10.76182 0.432087,-0.43208 0.558438,0.78852 0.558438,5.39466 0,3.65623 -0.180857,5.95309 -0.468748,5.95309 -0.257811,0 -0.473637,-0.26367 -0.479618,-0.58593 z m -5.036603,-4.10154 c 0,-0.90234 0.09647,-1.27148 0.214372,-0.82031 0.117899,0.45117 0.117899,1.18945 0,1.64062 -0.117904,0.45117 -0.214372,0.082 -0.214372,-0.82031 z M -1.6444838,266.53398 c -0.2404534,-0.62662 -0.5038005,-4.33064 -0.6125499,-8.61565 -0.054286,-2.13916 -0.1872178,-2.44616 -1.1163083,-2.57811 l -1.0546821,-0.14979 -0.049139,-10.81374 c -0.027047,-5.94755 -0.1926506,-11.57871 -0.3680512,-12.51368 -0.2637268,-1.40578 -0.1591679,-1.78543 0.6042578,-2.194 1.2707466,-0.68008 4.51617667,-0.62159 5.09699242,0.0919 0.30265158,0.37176 0.50006928,7.20499 0.54010968,18.69439 0.056653,16.25784 -0.014109,18.13808 -0.69232139,18.39834 -1.20120317,0.46095 -2.09547981,0.33923 -2.34830821,-0.31963 z M -2.31866,252.98732 c 0,-0.75722 -0.1386133,-0.89263 -0.5216551,-0.50959 -0.2869063,0.28691 -0.3799293,0.75097 -0.2067083,1.03124 0.4848678,0.78454 0.7283634,0.61015 0.7283634,-0.52165 z m -21.099013,-41.74197 c -0.0028,-0.83789 -0.12628,-6.31348 -0.274063,-12.16798 -0.147782,-5.8545 -0.126585,-10.87448 0.0471,-11.15551 0.22686,-0.36707 0.493863,-0.36318 0.948098,0.0138 0.499184,0.41429 0.639302,3.08353 0.665556,12.67894 0.02883,10.53777 -0.06081,12.1542 -0.674035,12.1542 -0.484367,0 -0.708981,-0.48015 -0.712661,-1.52343 z m 11.01426,-29.43495 c -0.396907,-1.25055 -0.146235,-6.59245 0.357739,-7.62348 0.297411,-0.60845 0.83551,-0.80689 1.906636,-0.70312 l 1.4922857,0.14456 v 4.43122 4.43122 l -1.7351257,0.11101 c -1.358777,0.0869 -1.797244,-0.0847 -2.021535,-0.79141 z m 8.0536791,0.37063 c -0.6353592,-0.46459 -0.8915766,-1.38662 -1.0062698,-3.62117 -0.2131629,-4.15313 0.2725393,-5.26586 2.2167355,-5.07841 l 1.5237296,0.14691 v 4.4531 c 0,4.10117 -0.074357,4.46376 -0.9408983,4.58798 -0.5174926,0.0742 -1.3244744,-0.1456 -1.793297,-0.48841 z m 7.2810468,0.0254 c -0.3481435,-0.34814 -0.5624971,-2.06182 -0.5624971,-4.49699 0,-3.54027 0.093932,-3.95905 0.9374952,-4.17964 2.1539888,-0.56328 0.6666481,-1.07422 -3.16404619,-1.08692 -10.21647981,-0.0339 -24.29871181,-0.58707 -24.70299781,-0.97041 -0.280114,-0.2656 -0.254033,-0.61351 0.07031,-0.93785 0.374998,-0.375 0.266173,-0.76507 -0.399031,-1.43028 -0.781829,-0.78183 -0.883974,-1.39383 -0.703379,-4.21438 l 0.211274,-3.29973 5.086169,-0.12039 c 2.797391,-0.0662 13.0718836,-0.15255 22.8322066,-0.19185 l 17.7460384,-0.0714 -0.323296,-1.28809 c -0.428613,-1.70774 -0.596842,-1.82422 -1.668286,-1.15509 -2.941518,1.83701 -5.141228,-0.53122 -5.132336,-5.52553 0.0062,-3.48316 0.373395,-4.31904 1.931751,-4.39744 0.841125,-0.0423 1.141719,-0.36454 1.254499,-1.34471 0.08738,-0.75935 0.433658,-1.28906 0.842677,-1.28906 0.554126,0 0.66617,-0.59165 0.554801,-2.92967 l -0.139556,-2.92967 -3.632794,0.16006 c -1.998036,0.088 -3.630646,-0.0174 -3.628026,-0.23438 0.0028,-0.21694 0.836775,-0.74381 1.853671,-1.17082 0.310909,-0.89089 0,0 0.118495,-1.90726 0.06078,-2.36571 -0.101943,-3.70589 -0.101943,-13.61028 0,-8.71936 -0.135552,-11.13389 -0.665753,-11.85852 -0.600334,-0.8205 -1.325754,-0.91749 -7.3827742,-0.9872 -8.9037712,-0.10246 -8.8263857,-0.0976 -8.8263857,-0.55216 0,-0.21729 4.21873761,-0.3755 9.3749703,-0.35156 9.3957356,0.0436 12.1368496,-0.32604 6.2108866,-0.83758 -5.0622159,-0.43698 -27.53053,-0.8997 -28.516142,-0.58727 -0.864267,0.27395 -0.892486,0.8561 -0.756164,15.59927 0.1127,12.18858 0.01702,15.39371 -0.468748,15.70183 -0.756634,0.47992 -3.70214,0.50835 -4.42981,0.0427 -0.865317,-0.55368 -1.2377,-32.05181 -0.393181,-33.25753 0.61068,-0.87187 1.141719,-0.90473 11.506014,-0.71202 8.080046,0.15023 10.7808289,0.0646 10.5343896,-0.33418 -0.1822679,-0.29492 -1.3149683,-0.51038 -2.5171136,-0.4788 -1.2021454,0.0316 -6.341466,0.034 -11.420716,0.005 -7.103926,-0.0401 -9.53771,-0.21 -10.546821,-0.73634 -0.7215,-0.37634 -1.665652,-0.68555 -2.098109,-0.68714 -0.892041,-0.003 -2.72932,-2.12511 -2.72932,-3.15202 0,-0.37344 -0.263671,-0.591994 -0.585935,-0.485691 -0.357724,0.118001 -0.641598,1.274261 -0.72886,2.968731 -0.225871,4.38615 -1.028943,4.24749 -1.028943,-0.17767 0,-3.483781 0.08466,-3.843732 0.904012,-3.843732 2.005026,0 2.333107,-1.061835 2.297135,-7.434669 -0.02039,-3.609469 0.175959,-6.399782 0.491834,-6.990001 0.292203,-0.545983 0.525747,-3.156405 0.525747,-5.876439 0,-5.141266 0.330692,-7.823744 0.9645,-7.823744 0.718721,0 1.031479,2.072685 0.970865,6.43402 -0.04106,2.953058 0.16791,4.923644 0.642522,6.059555 0.386843,0.925838 0.703346,2.383408 0.703346,3.239051 0,1.912354 0.789348,2.499891 1.669791,1.242879 0.36156,-0.516194 2.137658,-2.398422 3.946893,-4.182733 l 3.28952,-3.244197 v -2.644941 c 0,-2.441734 0.121415,-2.741816 1.580368,-3.905946 l 1.580369,-1.261006 0.06864,-11.522279 c 0.06495,-10.903232 0.301813,-13.271996 1.572827,-15.729169 0.257614,-0.498037 0.560434,-2.712869 0.672924,-4.92185 0.11249,-2.20898 0.30388,-4.499562 0.4253,-5.090181 0.322385,-1.568119 1.1307828,-0.780644 1.1307828,1.101517 0,0.887124 0.2109364,1.612952 0.4687475,1.612952 0.4894991,0 0.5482425,-0.38235 0.644528,-4.19529 0.072576,-2.874107 0.983723,-4.088918 1.4555596,-1.940666 0.5319254,2.421837 1.1811455,1.13117 1.1811455,-2.348144 0,-2.482977 0.218441,-3.578983 0.9053766,-4.542625 1.1612565,-1.629023 3.1453384,-12.189201 3.4463306,-18.3429284 0.055767,-1.1401131 0.3327873,-2.1488792 0.6155968,-2.2417025 0.33668265,-0.1105042 0.61721402,1.4142925 0.81257863,4.4166705 0.32606551,5.0109294 2.54587587,14.8796894 3.76568367,16.7413524 0.477846,0.729284 0.7748491,2.192477 0.7880209,3.882199 0.011625,1.491485 0.3021641,3.344599 0.6456389,4.118033 l 0.6244889,1.406242 0.5262348,-1.319571 C 6.3507374,32.833753 6.6091345,31.568135 6.635525,30.747032 l 0.047981,-1.492914 0.3802293,1.61468 c 0.2091224,0.888073 0.5309129,4.026361 0.7150838,6.973973 0.2590065,4.145239 0.5190911,5.543524 1.1481175,6.172551 0.7163119,0.716311 0.8240208,2.036249 0.9035438,11.072804 0.049659,5.642755 0.2826076,10.453023 0.5176616,10.689483 0.235058,0.236465 0.299347,1.654824 0.142869,3.15191 -0.275829,2.639025 -0.232503,2.779537 1.421623,4.610456 1.362804,1.508462 1.706124,2.265508 1.706124,3.762116 0,1.030504 0.210936,1.87364 0.468747,1.87364 0.257811,0 0.468748,0.692054 0.468748,1.537895 0,1.18408 0.607094,2.260235 2.638796,4.677632 1.451336,1.726861 2.822423,3.026253 3.046859,2.887546 0.224436,-0.138707 0.408063,-1.104351 0.408063,-2.14587 0,-1.04152 0.343185,-2.616882 0.762634,-3.500804 0.527636,-1.111911 0.464779,-4.444478 0.464779,-4.444478 -0.274072,-2.332994 0.470986,-5.574387 1.17197,-5.574387 0.227207,0 0.413103,0.566482 0.413103,1.258845 0,0.692364 0.177645,1.014187 0.344882,2.897005 0.167236,1.882819 0,0 0.09609,4.351192 0.423519,1.308799 0.722697,4.887823 0.834845,9.987182 0.103701,4.715239 0.379746,8.194363 0.678751,8.554642 0.27718,0.333983 0.952743,0.628269 1.501248,0.653969 0.879952,0.0412 0.859411,0.0848 -0.17458,0.37065 -1.044117,0.28861 -1.197622,0.62845 -1.408085,3.11732 -0.357734,4.23036 -1.230791,4.97403 -3.279391,2.79339 -1.372971,-1.46146 -4.070923,-1.70992 -3.319403,-0.30569 0.254961,0.4764 0.5011,3.83115 0.546981,7.455 0.04589,3.62386 0.213834,6.77739 0.373236,7.00784 0.495462,0.7163 2.565985,0.60275 3.440509,-0.18868 0.67344,-0.60946 0.833667,-1.51378 0.833667,-4.70523 0,-2.95323 0.147942,-3.901 0.585935,-3.75367 0.705971,0.23746 0.757201,1.71339 0.996496,28.709 0.119822,13.51724 0.01805,20.35645 -0.308942,20.76427 -0.930511,1.16048 -1.258971,-0.47951 -1.266312,-6.32261 -0.0042,-3.2959 -0.205569,-5.83711 -0.475924,-6.0042 -0.264669,-0.16358 -0.468748,0.21961 -0.468748,0.88013 0,0.9765 -0.251136,1.19411 -1.51959,1.31672 -2.010356,0.19432 -2.400536,1.65298 -0.500445,1.87086 l 1.316914,0.15102 v 3.82994 c 0,3.3853 -0.129098,3.9673 -1.11201,5.01308 -0.822085,0.87468 -1.03417,1.49329 -0.81345,2.37271 0.503622,2.00659 -0.179446,4.89147 -1.237714,5.22735 -0.563979,0.179 -1.098993,0.0441 -1.34127,-0.33832 -0.667061,-1.05276 -0.468237,-4.33928 0.331597,-5.4812 l 0.749002,-1.06935 -2.243824,0.14474 -2.243825,0.14474 0.119123,2.86565 c 0.08743,2.10312 -0.07706,3.06183 -0.618137,3.60291 -1.044112,1.04411 -0.437332,1.2363 3.767474,1.19328 3.419096,-0.035 6.278841,-0.80709 6.286613,-1.69734 0.0014,-0.18674 0.593406,-0.6753 1.315062,-1.0857 1.028423,-0.58485 1.458185,-1.34493 1.987799,-3.51561 l 0.6757,-2.76943 0.147805,2.31268 c 0.211302,3.30624 -0.153158,4.25811 -2.061514,5.38406 -0.928664,0.54793 -1.920304,1.6104 -2.203648,2.36106 -0.531621,1.40844 -1.814944,2.10073 -2.543546,1.37212 -0.479201,-0.4792 -13.4713887,-1.02733 -14.7478399,-0.6222 -0.7036136,0.22331 -0.7622914,0.44072 -0.3346389,1.2398 0.3409857,0.63714 0.4067229,2.31195 0.1919427,4.89037 -0.3224608,3.87107 -0.3429498,3.92138 -1.5970652,3.92138 -0.6987292,0 -1.5235374,-0.25313 -1.8329108,-0.5625 z m 9.4557821,-11.56975 c 0.224929,-0.0304 0.14361,-0.37492 -0.180707,-0.76569 -0.324317,-0.39078 -0.613815,-2.02554 -0.643332,-3.6328 -0.05329,-2.90196 -0.06315,-2.92229 -1.417418,-2.92229 -1.3402195,0 -1.3649788,0.0467 -1.4347096,2.70703 -0.076026,2.90048 -0.921975,4.34154 -2.2495665,3.8321 -0.8942392,-0.34315 -1.2608748,-3.49907 -0.6399296,-5.50837 0.5151068,-1.66683 0.2934313,-1.86356 -1.682246,-1.49292 l -1.6066557,0.30141 0.035344,3.12724 c 0.0345,3.05416 0.00595,3.13063 -1.2221984,3.27251 -1.68144446,0.19426 -2.4288531,-1.24993 -2.14981236,-4.15399 0.20750987,-2.15959 0.16994913,-2.2403 -1.16694244,-2.50767 -1.9736195,-0.39473 -2.2095401,-0.0747 -1.8961027,2.57174 0.2312285,1.95237 0.1065792,2.5908 -0.7256212,3.7164 l -1.004812,1.35909 3.3972902,0.1377 c 3.06704826,0.12431 13.5803393,0.0944 14.5874333,-0.0415 z m -32.488477,-3.33642 c 0.145232,-1.67577 0.356168,-3.36326 0.468747,-3.74998 0.150942,-0.51849 -0.246566,-0.74071 -1.513792,-0.84626 l -1.718475,-0.14314 0.134929,2.95563 c 0.07421,1.62559 -0.04153,3.29702 -0.257207,3.7143 -0.516414,0.99911 -0.02977,1.42552 1.432329,1.25502 1.105222,-0.1289 1.208098,-0.35437 1.453469,-3.18557 z m 8.40777,2.96658 c 0,-0.17306 -0.369138,-0.72334 -0.820308,-1.22285 -0.576977,-0.6388 -0.820308,-1.6926 -0.820308,-3.55252 v -2.64431 l -1.688237,-0.14134 -1.688236,-0.14133 -0.05366,3.14884 c -0.02953,1.73187 -0.271752,3.36695 -0.538314,3.63351 -0.971217,0.97122 -0.424526,1.23465 2.562202,1.23465 1.675773,0 3.046859,-0.14159 3.046859,-0.31465 z m 5.6249714,-0.12643 c 0,-0.2426 -0.2109364,-0.57145 -0.4687476,-0.73079 -0.2578112,-0.15933 -0.4687476,-1.64834 -0.4687476,-3.3089 v -3.01919 h -1.8839199 c -1.8236483,0 -1.8732373,0.0413 -1.5499703,1.28906 0.18367,0.70898 0.338361,2.39647 0.343747,3.74998 l 0.0098,2.46092 h 2.0089205 c 1.1049084,0 2.0089209,-0.19848 2.0089209,-0.44108 z M 23.9084,138.94908 c -0.02297,-7.09289 -0.157026,-8.79273 -0.739243,-9.37495 -0.861657,-0.86166 -0.668495,-0.86103 -2.378843,-0.008 l -1.409936,0.70337 0.140371,4.80441 c 0.07721,2.64243 0.151931,5.53215 0.166054,6.4216 0.01997,1.2578 0.150674,1.49217 0.58817,1.05468 0.79411,-0.79411 2.097585,-0.69828 2.434211,0.17896 0.156492,0.4078 0.284525,1.5328 0.284525,2.49999 0,1.54795 0.274799,2.38352 0.783887,2.38352 0.08738,0 0.146249,-3.8987 0.130804,-8.66379 z m -44.638171,-0.62092 c 0.43002,-0.27321 0.583661,-3.98834 0.615175,-14.87556 l 0.042,-14.5114 -1.425687,-0.14616 -1.425686,-0.14615 -0.126984,9.38988 c -0.138599,10.24881 0.194849,19.20298 0.748463,20.09875 0.405856,0.65669 0.769736,0.7008 1.57271,0.19064 z m 38.567257,-0.55899 c 0,-0.25781 -0.210937,-0.46874 -0.468748,-0.46874 -0.257811,0 -0.468747,0.21093 -0.468747,0.46874 0,0.25781 0.210936,0.46875 0.468747,0.46875 0.257811,0 0.468748,-0.21094 0.468748,-0.46875 z M 1.4313206,105.42559 c 0,-0.25781 -0.3164046,-0.46874 -0.70312132,-0.46874 -0.38671675,0 -0.70312137,0.21093 -0.70312137,0.46874 0,0.25781 0.31640462,0.46875 0.70312137,0.46875 0.38671672,0 0.70312132,-0.21094 0.70312132,-0.46875 z m -8.9565943,-2.16032 c 0.1011932,-0.0884 -0.057487,-0.45172 -0.3526248,-0.80733 -0.7921224,-0.95445 -0.8611877,-8.49569 -0.086362,-9.429303 0.8118427,-0.978206 0.65582,-1.080173 -1.8543607,-1.211914 -3.2575708,-0.170971 -3.3187048,-0.144398 -2.8008838,1.217576 0.251431,0.661309 0.457146,2.959044 0.457146,5.106072 0,3.211539 -0.138567,3.956859 -0.781505,4.203579 -0.429828,0.16494 -0.963408,0.11799 -1.185735,-0.10434 -0.416403,-0.4164 -0.679721,-8.034755 -0.335426,-9.704574 0.172677,-0.837464 -0.05476,-0.937495 -2.131564,-0.937495 h -2.324866 l 0.136593,4.31483 c 0.149328,4.717009 -0.124626,6.231989 -1.126926,6.231989 -1.26492,0 -1.738861,-1.90292 -1.535148,-6.163776 0.19318,-4.040478 0.171036,-4.148669 -0.849066,-4.148669 -0.992704,0 -1.055338,0.214255 -1.199047,4.101541 -0.08339,2.255847 -0.04341,4.839814 0.08882,5.742154 l 0.240449,1.64062 3.743905,0.27277 c 3.49247,0.25445 11.4837723,0.037 11.8965983,-0.32373 z m 12.0456831,0.28533 c 0.4939099,0 0.5774267,-0.83808 0.3907667,-3.921389 C 4.7462285,96.904513 4.87752,95.116419 5.3414629,93.769867 l 0.6676794,-1.937952 h -2.789245 c -2.44128891,0 -2.7573654,0.102332 -2.53366968,0.820308 0.14056802,0.451169 0.30523905,2.666217 0.36593248,4.922327 0.09157,3.40387 -0.031219,4.24155 -0.72138846,4.92185 -0.79227715,0.78093 -0.86498459,0.77535 -1.53248584,-0.11767 -0.5347144,-0.71536 -0.6546435,-1.88153 -0.506163,-4.921845 0.1070244,-2.191395 0.2770486,-4.406124 0.3778387,-4.921624 0.2112973,-1.08073 -1.0842226,-1.434367 -3.555966,-0.970668 l -1.5070422,0.282725 0.4273712,2.687597 c 0.453368,2.851082 0.3098609,6.844895 -0.2937782,8.175735 -0.3235436,0.71333 0.063314,0.81964 3.5466192,0.97463 2.15037951,0.0957 4.5162235,0.10453 5.2574306,0.0196 0.7412072,-0.0849 1.6303229,-0.15432 1.9758133,-0.15432 z M 16.91725,98.623865 c 0.138402,-2.833232 0.414307,-5.493543 0.613122,-5.911802 0.27755,-0.583886 0.06276,-0.817571 -0.925045,-1.006401 -1.920305,-0.36709 -2.635229,0.06339 -2.303084,1.386766 0.156463,0.623402 0.290033,3.166268 0.296821,5.650822 0.01345,4.92742 0.131347,5.40082 1.289951,5.17998 0.648006,-0.12352 0.818269,-1.00102 1.028235,-5.299365 z m 4.554333,4.710955 c 0.458613,-0.38442 0.200661,-6.885348 -0.323413,-8.150573 -0.894604,-2.159768 -1.416095,-1.084677 -1.443423,2.97576 -0.01434,2.129323 -0.26368,3.600643 -0.710266,4.191083 -0.540147,0.71414 -0.562145,0.98912 -0.10228,1.27836 0.478296,0.30082 2.088416,0.11691 2.579382,-0.29463 z m -9.852146,-3.885758 c -0.175448,-2.735095 -0.06568,-4.672977 0.329487,-5.816772 L 12.54152,91.917058 10.853588,91.757299 C 9.9252236,91.669433 8.716033,91.66167 8.1664921,91.74005 7.2425531,91.871833 7.2015237,92.030654 7.621498,93.849413 7.8712889,94.93118 7.9895868,97.556489 7.8843811,99.683431 L 7.6930992,103.5506 h 2.0947205 2.0947153 l -0.263098,-4.101542 z m 8.561787,-6.679652 c 0,-0.257811 -0.223387,-0.468748 -0.496413,-0.468748 -0.273027,0 -0.366045,0.210937 -0.206709,0.468748 0.159337,0.257811 0.382723,0.468747 0.496413,0.468747 0.113691,0 0.206709,-0.210936 0.206709,-0.468747 z M 6.9588202,67.808603 c 0.095432,-2.532254 -0.02864,-3.632793 -0.4096057,-3.632793 -0.3764746,0 -0.47936,0.809738 -0.330678,2.602608 0.2294614,2.767031 -0.2605392,3.49111 -2.3625112,3.49111 -1.072532,0 -1.4872095,-0.860246 -1.4872095,-3.085198 0,-0.88125 -0.2109364,-1.602278 -0.4687476,-1.602278 -0.2578111,0 -0.4687476,0.638031 -0.4687476,1.417844 0,1.648932 -1.24924975,2.332137 -4.2643467,2.332137 -1.4485753,0 -1.9384071,-0.213084 -2.2162151,-0.964078 l -0.3566372,-0.964073 -1.1886829,0.935015 c -0.6537763,0.514263 -1.7521129,1.076432 -2.4407452,1.249269 -1.1989715,0.300922 -1.6147325,1.099935 -0.9291093,1.785562 0.1776272,0.177623 4.0272167,0.265513 8.5546433,0.195313 l 8.2316903,-0.127644 z m -7.33889488,-4.667736 c 0.009469,-4.620389 0.47231943,-6.373636 1.33547122,-5.058775 0.25386436,0.386716 0.46480076,1.903555 0.46874756,3.370754 0.00375,1.467198 0.217363,2.797537 0.4742601,2.956311 0.3061859,0.189229 0.3950229,-2.344446 0.2579002,-7.355113 -0.1150541,-4.20408 -0.223002,-7.74925 -0.2398863,-7.878156 -0.016875,-0.128905 -0.23518,0.08203 -0.4850975,0.468748 -0.2499174,0.386717 -0.45762415,2.229921 -0.46157101,4.096014 -0.00675,3.182834 -0.0690137,3.38598 -1.00598855,3.281233 -1.06862734,-0.119465 -1.10540994,0.217635 -0.92985926,8.521109 0.0906042,4.285557 0.57639077,2.294313 0.58602354,-2.402125 z M -5.1311455,56.675849 c 0,-0.257811 -0.3164046,-0.468747 -0.7031213,-0.468747 -0.3867168,0 -0.7031214,0.210936 -0.7031214,0.468747 0,0.257811 0.3164046,0.468748 0.7031214,0.468748 0.3867167,0 0.7031213,-0.210937 0.7031213,-0.468748 z m 4.68747583,-3.046859 c 0,-1.16015 -0.21093641,-2.109364 -0.46874758,-2.109364 -0.51769885,0 -0.65403415,3.408442 -0.15624765,3.906228 0.55383466,0.553839 0.62499523,0.34925 0.62499523,-1.796864 z M 1.4313206,45.894656 c 0,-0.257812 -0.3164046,-0.468748 -0.70312132,-0.468748 -0.38671675,0 -0.70312137,0.210936 -0.70312137,0.468748 0,0.257811 0.31640462,0.468747 0.70312137,0.468747 0.38671672,0 0.70312132,-0.210936 0.70312132,-0.468747 z M 21.318307,176.98819 c -0.164938,-0.42982 -0.150726,-1.15064 0.03159,-1.60181 0.289282,-0.7159 0.386979,-0.67596 0.76756,0.31384 0.278333,0.72386 0.266909,1.30331 -0.03159,1.6018 -0.311066,0.31107 -0.568094,0.20597 -0.767565,-0.31383 z m 1.225897,-8.9614 c -0.802163,-0.96654 -0.425018,-3.26389 0.566692,-3.45196 0.670848,-0.12722 0.820308,0.18727 0.820308,1.72613 0,2.08153 -0.537123,2.74987 -1.387,1.72583 z m -45.416433,-9.09264 c -0.860344,-0.86035 -1.00882,-1.54756 -1.00882,-4.66921 0,-3.96013 0.625422,-5.51602 2.004543,-4.9868 0.873155,0.33506 0.921938,0.60311 1.043189,5.73241 0.0477,2.01798 -0.146348,3.72382 -0.474701,4.17287 -0.503257,0.68824 -0.650101,0.66484 -1.564211,-0.24927 z m 29.2164086,-0.72238 c -0.5516924,-0.84199 -0.6997417,-2.09216 -0.5967437,-5.03904 0.1350414,-3.86356 0.1548507,-3.92129 1.3945146,-4.06451 0.8692643,-0.10042 1.4096224,0.1389 1.75013,0.77515 0.5391019,1.00733 0.4359915,7.95821 -0.1316805,8.87672 -0.5608331,0.90745 -1.6198276,0.66713 -2.4162204,-0.54832 z m -33.6906836,-0.0904 c -0.156492,-0.4078 -0.284525,-2.08539 -0.284525,-3.72798 0,-2.94232 -0.02386,-2.99786 -1.612075,-3.75151 -2.805538,-1.33132 -3.277708,-0.92243 -3.544149,3.06915 -0.128905,1.93115 -0.35667,3.30025 -0.506144,3.04244 -0.434824,-0.74999 -0.443294,-14.7252 -0.01078,-17.81241 l 0.394015,-2.81248 0.06146,2.429 c 0.05266,2.08125 0.246687,2.5609 1.355214,3.35024 1.292848,0.92059 1.294658,0.92052 2.578112,-0.10287 1.267747,-1.01088 1.28435,-1.09464 1.28435,-6.47996 v -5.45584 l -1.478261,-0.73745 c -1.856466,-0.92613 -2.228581,-0.9218 -3.289493,0.0383 -0.826013,0.74756 -0.857217,0.56738 -0.857217,-4.94949 0,-3.69749 0.166021,-5.62268 0.468747,-5.43558 0.257812,0.15934 0.468748,0.77999 0.468748,1.37924 0,1.83719 3.115859,1.89047 4.328739,0.074 0.189411,-0.28368 0.347613,-3.41614 0.35156,-6.96105 0.0047,-4.19228 0.179554,-6.44527 0.500309,-6.44527 0.303368,0 0.489653,1.39793 0.484089,3.63279 -0.005,1.99804 0.074,7.74605 0.175499,12.77337 0.17444,8.64032 0.348622,29.30449 0.283499,33.63264 -0.03005,1.99814 -0.619323,2.63806 -1.151694,1.25071 z m 26.46338348,-0.16674 c -0.80415518,-0.80415 -0.96679188,-1.55638 -0.96679188,-4.47159 0,-3.24001 0.090356,-3.564 1.19593913,-4.28841 1.80934217,-1.18552 2.13700147,-0.4019 1.98599447,4.74968 -0.145429,4.96141 -0.54345661,5.68201 -2.21514172,4.01032 z M -17.28944,157.72606 c -0.399073,-0.48085 -0.447983,-1.75977 -0.174581,-4.56479 0.311942,-3.20047 0.530416,-3.92561 1.222639,-4.05817 1.653681,-0.31668 2.204033,0.77906 2.204033,4.38818 0,1.88092 -0.128034,3.75352 -0.284526,4.16133 -0.354265,0.9232 -2.223926,0.96948 -2.967565,0.0734 z m 7.7833187,0.35551 c -0.4547695,-0.45477 -0.369434,-7.77812 0.099248,-8.51753 0.2185677,-0.34482 0.9008813,-0.55576 1.5162531,-0.46875 1.0960584,0.15497 1.1160365,0.24339 0.9803903,4.33893 -0.076157,2.29941 -0.2468097,4.35604 -0.3792262,4.57029 -0.2880032,0.46601 -1.7759955,0.51773 -2.2166651,0.0771 z m -7.5723637,-10.90398 c -1.746629,-0.34304 -2.125846,-1.68648 -0.585199,-2.07315 1.805883,-0.45325 30.506125,-0.24119 31.399629,0.232 1.163169,0.616 1.019141,1.14741 -0.468748,1.72951 -1.356668,0.53076 -27.717869,0.62774 -30.345682,0.11164 z m 44.290922,-0.50221 c 0,-0.25781 0.223387,-0.46875 0.496414,-0.46875 0.273026,0 0.366045,0.21094 0.206708,0.46875 -0.159337,0.25781 -0.382723,0.46874 -0.496413,0.46874 -0.11369,0 -0.206709,-0.21093 -0.206709,-0.46874 z m -42.743919,-6.41393 c 0.338374,-0.1354 0.742669,-0.11875 0.898434,0.037 0.15576,0.15576 -0.121096,0.26655 -0.615231,0.24619 -0.546068,-0.0225 -0.657137,-0.13356 -0.283203,-0.2832 z M -33.256,131.64779 c 0,-0.53084 0.201725,-0.84049 0.448277,-0.68811 0.246552,0.15238 0.32945,0.5867 0.184223,0.96516 -0.371825,0.96896 -0.6325,0.85477 -0.6325,-0.27705 z m 42.9104235,-5.56491 c -0.1483305,-0.24 -0.055307,-0.56886 0.2067083,-0.73079 0.2620162,-0.16193 0.4763932,0.0344 0.4763932,0.43636 0,0.82337 -0.281277,0.9446 -0.6831015,0.29443 z M -5.0971238,124.8154 c -0.5343347,-0.67929 -0.9715168,-1.82699 -0.9715168,-2.55044 0,-0.72346 -0.2110536,-1.44581 -0.4690054,-1.60523 -0.2579518,-0.15942 -0.7032573,-1.22017 -0.989573,-2.35723 -0.286311,-1.13705 -0.8135396,-2.31051 -1.1716111,-2.60768 -0.749129,-0.62172 -0.8737033,-1.83177 -0.1885866,-1.83177 0.2543518,0 0.7640726,0.72187 1.1327145,1.60416 0.3686465,0.88228 1.2045641,1.95424 1.8575998,2.38213 0.6530403,0.42789 1.4168739,1.47346 1.6974193,2.32352 0.2805408,0.85004 0.9240046,1.92014 1.4299239,2.37799 1.043568,0.94441 1.1852798,2.10921 0.3573497,2.93714 -0.866508,0.86651 -1.6231744,0.67694 -2.6847143,-0.67259 z M -33.256,111.28494 c 0,-0.38672 0.0829,-0.70312 0.184222,-0.70312 0.101325,0 0.305638,0.3164 0.454039,0.70312 0.148396,0.38671 0.06549,0.70312 -0.184223,0.70312 -0.24972,0 -0.454038,-0.31641 -0.454038,-0.70312 z m 60.743639,-4.38704 c -0.136879,-0.22148 -0.06697,-1.32889 0.155352,-2.46092 l 0.404225,-2.05825 0.05136,2.46093 c 0.04991,2.39139 -0.0977,2.88867 -0.610933,2.05824 z"
           style="fill:#252525;stroke-width:0.46874756" />
      </g>
    </g>
    <path
       style="color:#000000;clip-rule:nonzero;display:inline;overflow:visible;visibility:visible;opacity:1;isolation:auto;mix-blend-mode:normal;color-interpolation:sRGB;color-interpolation-filters:linearRGB;solid-color:#000000;solid-opacity:1;fill:#5277c3;fill-opacity:1;fill-rule:evenodd;stroke:none;stroke-width:1.25318325;stroke-linecap:butt;stroke-linejoin:round;stroke-miterlimit:4;stroke-dasharray:none;stroke-dashoffset:0;stroke-opacity:1;color-rendering:auto;image-rendering:auto;shape-rendering:auto;text-rendering:auto;enable-background:accumulate"
       d="M 64.226337,150.25519 115.27128,238.67776 91.812968,238.89797 78.185202,215.1421 64.46015,238.771 52.804556,238.767 46.834863,228.45346 66.3889,194.8305 52.50803,170.67512 Z"
       id="path4873-1-0-2"
       inkscape:connector-curvature="0"
       sodipodi:nodetypes="cccccccccc" />
    <path
       style="color:#000000;clip-rule:nonzero;display:inline;overflow:visible;visibility:visible;opacity:1;isolation:auto;mix-blend-mode:normal;color-interpolation:sRGB;color-interpolation-filters:linearRGB;solid-color:#000000;solid-opacity:1;fill:#5277c3;fill-opacity:1;fill-rule:evenodd;stroke:none;stroke-width:1.25318325;stroke-linecap:butt;stroke-linejoin:round;stroke-miterlimit:4;stroke-dasharray:none;stroke-dashoffset:0;stroke-opacity:1;color-rendering:auto;image-rendering:auto;shape-rendering:auto;text-rendering:auto;enable-background:accumulate"
       d="m 127.49873,182.17361 51.05367,-88.417501 11.91977,20.205461 -13.75928,23.67996 27.32575,0.0718 5.82369,10.09641 -5.94692,10.32669 -38.89539,-0.12281 -13.97873,24.09887 z"
       id="use4877-4-1-4"
       inkscape:connector-curvature="0"
       sodipodi:nodetypes="cccccccccc" />
    <path
       sodipodi:nodetypes="cccccccccc"
       inkscape:connector-curvature="0"
       id="use4865-9-3-4"
       d="m 86.56714,184.51268 102.09859,0.004 -11.53859,20.42555 -27.38705,-0.0757 13.60069,23.70065 -5.83187,10.09169 -11.91663,0.0122 -19.34136,-33.74572 -27.859554,-0.0567 z"
       style="color:#000000;clip-rule:nonzero;display:inline;overflow:visible;visibility:visible;opacity:1;isolation:auto;mix-blend-mode:normal;color-interpolation:sRGB;color-interpolation-filters:linearRGB;solid-color:#000000;solid-opacity:1;fill:#7ebae4;fill-opacity:1;fill-rule:evenodd;stroke:none;stroke-width:1.25318325;stroke-linecap:butt;stroke-linejoin:round;stroke-miterlimit:4;stroke-dasharray:none;stroke-dashoffset:0;stroke-opacity:1;color-rendering:auto;image-rendering:auto;shape-rendering:auto;text-rendering:auto;enable-background:accumulate" />
    <flowRoot
       xml:space="preserve"
       id="flowRoot199"
       style="fill:black;fill-opacity:1;stroke:none;font-family:sans-serif;font-style:normal;font-weight:normal;font-size:40px;line-height:1.25;letter-spacing:0px;word-spacing:0px"><flowRegion
         id="flowRegion201"><rect
           id="rect203"
           width="406.08133"
           height="183.84776"
           x="-549.52301"
           y="516.42816" /></flowRegion><flowPara
         id="flowPara205" /></flowRoot>  </g>
</svg>
